<?xml version="1.0" encoding="UTF-8"?>
<svg version="1.1" xmlns="http://www.w3.org/2000/svg" width="640" height="640">
<path d="M0 0 C211.2 0 422.4 0 640 0 C640 211.2 640 422.4 640 640 C428.8 640 217.6 640 0 640 C0 428.8 0 217.6 0 0 Z " fill="#21304A" transform="translate(0,0)"/>
<path d="M0 0 C-3.80264136 3.34994596 -7.25086953 6.0571739 -12 8 C-14 7 -14 7 -15 6 C-17.57424652 6.09377396 -20.12020997 6.24504325 -22.6875 6.4375 C-30.47670187 6.96660598 -38.1907656 7.11138369 -46 7 C-46 7.99 -46 8.98 -46 10 C-44.72125 9.835 -43.4425 9.67 -42.125 9.5 C-34.11038747 8.67769149 -26.04571278 8.92112046 -18 9 C-18 9.99 -18 10.98 -18 12 C-19.79296875 13.2890625 -19.79296875 13.2890625 -22.1875 14.625 C-30.94825093 20.232429 -33.84185036 30.47601146 -37 40 C-37.73041853 43.61023099 -37.73041853 43.61023099 -38 47 C-38.2784375 48.01126953 -38.2784375 48.01126953 -38.5625 49.04296875 C-40.66005528 56.86947187 -40.7049834 68.59003319 -37 76 C-36.84995027 77.3734635 -36.75161994 78.7528526 -36.68359375 80.1328125 C-36.64169922 80.93847656 -36.59980469 81.74414062 -36.55664062 82.57421875 C-36.51732422 83.41597656 -36.47800781 84.25773438 -36.4375 85.125 C-36.37272461 86.39923828 -36.37272461 86.39923828 -36.30664062 87.69921875 C-36.20045764 89.79928223 -36.09971503 91.89961948 -36 94 C-38.18994248 90.71508627 -38.35277339 89.16904361 -38.625 85.3125 C-38.73714844 83.82169922 -38.73714844 83.82169922 -38.8515625 82.30078125 C-38.90054688 81.54152344 -38.94953125 80.78226563 -39 80 C-39.99 80.66 -40.98 81.32 -42 82 C-42.25075161 84.04342033 -42.25075161 84.04342033 -42 86.3125 C-41.92777871 89.29764652 -42.04897013 91.15996909 -42.9375 94.0625 C-45.37848203 96.35554372 -46.12388914 96.31549548 -49.375 96.375 C-52.66351648 96.19378515 -55.78702254 95.73439485 -59 95 C-60.32 95 -61.64 95 -63 95 C-63.33 95.66 -63.66 96.32 -64 97 C-64.66 97 -65.32 97 -66 97 C-66 96.34 -66 95.68 -66 95 C-66.99 95.495 -66.99 95.495 -68 96 C-67.67 96.99 -67.34 97.98 -67 99 C-64.98491642 99.73323796 -64.98491642 99.73323796 -63 100 C-64.32 100.33 -65.64 100.66 -67 101 C-67 101.99 -67 102.98 -67 104 C-66.34 103.67 -65.68 103.34 -65 103 C-64.34 103.66 -63.68 104.32 -63 105 C-63.33 105.66 -63.66 106.32 -64 107 C-65.65835665 107.2665216 -67.32824523 107.46246829 -69 107.625 C-74.86141056 108.56130325 -77.82919012 110.85668577 -81.9296875 115.02734375 C-85.57596336 118.50162547 -87.89965495 120 -93 120 C-93 118.68 -93 117.36 -93 116 C-99.13930166 115.80336756 -104.19221563 115.80594813 -110 118 C-114.07844537 118.79813021 -118.00831135 119.49688324 -122 118 C-122 117.34 -122 116.68 -122 116 C-122.7734375 116.495 -122.7734375 116.495 -123.5625 117 C-126 118 -126 118 -133 118 C-133 80.38 -133 42.76 -133 4 C-129.70802188 3.34160438 -127.2326017 2.872624 -124.00076294 2.817276 C-123.23934494 2.80196335 -122.47792694 2.7866507 -121.69343567 2.77087402 C-120.87179428 2.75890991 -120.05015289 2.7469458 -119.20361328 2.73461914 C-118.32608902 2.71817856 -117.44856476 2.70173798 -116.54444885 2.68479919 C-114.63808772 2.64958144 -112.73168818 2.61639756 -110.82526016 2.58500862 C-107.77499569 2.53440444 -104.7248993 2.47766898 -101.67477417 2.41929626 C-93.00078163 2.25440966 -84.32660601 2.10040634 -75.65234375 1.95043945 C-69.3123558 1.84000142 -62.97254125 1.72207554 -56.6328125 1.59765625 C-55.09005016 1.56775541 -55.09005016 1.56775541 -53.51612091 1.53725052 C-39.21102452 1.25015658 -24.96238492 0.68517927 -10.697052 -0.4306488 C-8.99051956 -0.56274498 -8.99051956 -0.56274498 -7.24951172 -0.69750977 C-6.27392303 -0.7797731 -5.29833435 -0.86203644 -4.29318237 -0.9467926 C-2 -1 -2 -1 0 0 Z M-54 93 C-54 93.66 -54 94.32 -54 95 C-53.34 95 -52.68 95 -52 95 C-52 94.34 -52 93.68 -52 93 C-52.66 93 -53.32 93 -54 93 Z " fill="#080D15" transform="translate(133,437)"/>
<path d="M0 0 C5.61 0 11.22 0 17 0 C16.34 1.65 15.68 3.3 15 5 C15 6.134375 15 7.26875 15 8.4375 C15 12.17286615 14.19790425 14.49088958 13 18 C12.51056399 20.1383971 12.05650832 22.28511258 11.6328125 24.4375 C11.38660156 25.66339844 11.14039063 26.88929688 10.88671875 28.15234375 C10.38515402 30.68588865 9.88511435 33.21973602 9.38671875 35.75390625 C7.6645911 44.31100685 5.49514741 52.6380215 3 61 C2.32771488 63.33176901 1.66351795 65.66571363 1 68 C0.67 66.68 0.34 65.36 0 64 C-1.155 64.165 -2.31 64.33 -3.5 64.5 C-7.69907803 65.03238311 -11.77063041 65.07552446 -16 65 C-16 65.99 -16 66.98 -16 68 C-18.97 68 -21.94 68 -25 68 C-25.33 68.99 -25.66 69.98 -26 71 C-29.18327269 67.38221531 -30.4376792 63.42612981 -31.9375 58.9375 C-32.46435284 57.39957132 -32.99169634 55.86181064 -33.51953125 54.32421875 C-33.77299316 53.57962402 -34.02645508 52.8350293 -34.28759766 52.06787109 C-35.19094735 49.44574228 -36.15417842 46.84781109 -37.125 44.25 C-38.56232486 40.35206963 -39.77235472 36.42498921 -40.9375 32.4375 C-42.68207369 26.66592619 -44.77992271 21.12583731 -48 16 C-48.66 15.67 -49.32 15.34 -50 15 C-49.67 14.01 -49.34 13.02 -49 12 C-47.02 12.495 -47.02 12.495 -45 13 C-45 12.01 -45 11.02 -45 10 C-43.35 10.33 -41.7 10.66 -40 11 C-40 11.66 -40 12.32 -40 13 C-37.36 13 -34.72 13 -32 13 C-32 12.34 -32 11.68 -32 11 C-28.20732808 10.0639658 -25.06325435 10.01723748 -21.1875 10.4375 C-19.72376953 10.59025391 -19.72376953 10.59025391 -18.23046875 10.74609375 C-17.49441406 10.82988281 -16.75835937 10.91367187 -16 11 C-15.67 10.34 -15.34 9.68 -15 9 C-13.125 8.4375 -13.125 8.4375 -11 8 C-10.01 7.67 -9.02 7.34 -8 7 C-6.43881572 6.93259135 -4.8749748 6.91485544 -3.3125 6.9375 C-2.10013672 6.95103516 -2.10013672 6.95103516 -0.86328125 6.96484375 C0.05904297 6.98224609 0.05904297 6.98224609 1 7 C0.505 5.02 0.505 5.02 0 3 C2.64 3 5.28 3 8 3 C8 2.34 8 1.68 8 1 C5.36 1 2.72 1 0 1 C0 0.67 0 0.34 0 0 Z " fill="#0F1823" transform="translate(432,433)"/>
<path d="M0 0 C1.35611813 0.00502686 2.71223808 0.00958766 4.06835938 0.01367188 C7.35811994 0.02537921 10.64778594 0.04177789 13.9375 0.0625 C13.9375 4.94339436 13.18283655 9.11193142 10.5234375 13.27734375 C8.52566892 16.78574029 7.49020801 20.32472904 6.375 24.1875 C4.19649281 31.67401079 4.19649281 31.67401079 1.9375 35.0625 C-0.09179266 38.28549423 -0.33092212 41.25837813 -0.72265625 45.00390625 C-1.14404032 47.55642812 -2.16466623 49.7204772 -3.2421875 52.05859375 C-7.33792628 62.06389848 -8.40857933 73.43996941 -10.0625 84.0625 C-10.16981445 84.74747559 -10.27712891 85.43245117 -10.38769531 86.13818359 C-10.95684085 89.7780048 -11.5153772 93.41930581 -12.0625 97.0625 C-13.5475 97.5575 -13.5475 97.5575 -15.0625 98.0625 C-14.77398297 95.49960936 -14.48245347 92.93715341 -14.1875 90.375 C-14.09944092 89.60857178 -14.01138184 88.84214355 -13.9206543 88.05249023 C-13.22904406 82.16799398 -12.3476585 76.34193628 -11.33203125 70.50390625 C-10.83852754 68.05822712 -10.83852754 68.05822712 -12.0625 66.0625 C-11.4025 66.0625 -10.7425 66.0625 -10.0625 66.0625 C-8.14291846 57.18443539 -8.77751637 48.77400008 -11.0625 40.0625 C-11.7225 40.0625 -12.3825 40.0625 -13.0625 40.0625 C-14.7125 35.4425 -16.3625 30.8225 -18.0625 26.0625 C-24.59644112 26.25934273 -24.59644112 26.25934273 -26.515625 28.5859375 C-26.77859375 29.19695312 -27.0415625 29.80796875 -27.3125 30.4375 C-28.62599801 33.19360053 -29.84140747 34.94236622 -32.0625 37.0625 C-33.65163558 39.73893887 -34.0625 40.8805056 -34.0625 44.0625 C-35.71782623 45.08116229 -37.38510138 46.08060813 -39.0625 47.0625 C-39.3925 48.0525 -39.7225 49.0425 -40.0625 50.0625 C-39.4025 50.3925 -38.7425 50.7225 -38.0625 51.0625 C-38.7225 51.7225 -39.3825 52.3825 -40.0625 53.0625 C-40.10415763 55.06206611 -40.10415763 57.06293389 -40.0625 59.0625 C-40.3925 59.7225 -40.7225 60.3825 -41.0625 61.0625 C-40.4025 61.3925 -39.7425 61.7225 -39.0625 62.0625 C-39.0625 63.0525 -39.0625 64.0425 -39.0625 65.0625 C-39.7225 65.0625 -40.3825 65.0625 -41.0625 65.0625 C-44.15971227 74.35413682 -41.88410992 86.40858349 -41.0625 96.0625 C-40.4025 96.0625 -39.7425 96.0625 -39.0625 96.0625 C-37.80012269 98.58725462 -37.96393596 100.37450466 -38 103.1875 C-38.00902344 104.09757813 -38.01804688 105.00765625 -38.02734375 105.9453125 C-38.03894531 106.64398437 -38.05054688 107.34265625 -38.0625 108.0625 C-41.30416524 103.20000213 -42.55509781 99.3139362 -43.1875 93.5 C-43.2709668 92.73494141 -43.35443359 91.96988281 -43.44042969 91.18164062 C-44.14591365 83.81581212 -44.27915982 76.45846399 -44.3125 69.0625 C-44.32168457 67.92997803 -44.33086914 66.79745605 -44.34033203 65.63061523 C-44.30684843 56.52910407 -43.70522261 48.08174814 -39.0625 40.0625 C-38.4025 40.0625 -37.7425 40.0625 -37.0625 40.0625 C-36.98 39.505625 -36.8975 38.94875 -36.8125 38.375 C-36.0625 36.0625 -36.0625 36.0625 -34.25 33.8125 C-32.3392729 31.41044308 -31.37988759 29.63395539 -30.1875 26.875 C-28.7004568 23.78428277 -28.29805589 23.18779569 -25.125 21.5 C-21.98377445 21.05125349 -20.04804264 21.01352556 -17.0625 22.0625 C-10.12309413 27.99751818 -8.16294885 37.42315533 -7.0625 46.0625 C-6.94097513 38.32541674 -7.21449233 30.755141 -8.0625 23.0625 C-8.7225 23.0625 -9.3825 23.0625 -10.0625 23.0625 C-10.7225 20.4225 -11.3825 17.7825 -12.0625 15.0625 C-12.7225 15.0625 -13.3825 15.0625 -14.0625 15.0625 C-15.46484375 13.6015625 -15.46484375 13.6015625 -17 11.6875 C-18.98236617 9.22348476 -20.36949655 7.85783563 -23.0625 6.0625 C-23.0625 5.4025 -23.0625 4.7425 -23.0625 4.0625 C-24.0525 3.4025 -25.0425 2.7425 -26.0625 2.0625 C-18.72619262 -1.60565369 -7.94802947 -0.0509238 0 0 Z M-43.0625 61.0625 C-42.0625 63.0625 -42.0625 63.0625 -42.0625 63.0625 Z " fill="#101621" transform="translate(224.0625,447.9375)"/>
<path d="M0 0 C-3.80264136 3.34994596 -7.25086953 6.0571739 -12 8 C-14 7 -14 7 -15 6 C-17.57424652 6.09377396 -20.12020997 6.24504325 -22.6875 6.4375 C-30.47670187 6.96660598 -38.1907656 7.11138369 -46 7 C-46 7.99 -46 8.98 -46 10 C-45.12601563 9.89171875 -45.12601563 9.89171875 -44.234375 9.78125 C-25.55924973 7.66708488 -25.55924973 7.66708488 -20 11 C-21.86792985 12.86792985 -24.99440464 12.35227439 -27.5 12.49609375 C-28.20213623 12.53649277 -28.90427246 12.57689178 -29.62768555 12.61851501 C-40.41276512 13.21699151 -51.20680298 13.64217511 -62 14.0625 C-63.1396521 14.10735535 -64.2793042 14.15221069 -65.45349121 14.19842529 C-83.97858797 14.91762881 -102.46268846 15.27853103 -121 15 C-121 14.67 -121 14.34 -121 14 C-117.00204108 13.04380267 -113.29196078 12.8960408 -109.1875 12.9375 C-108.02605469 12.94652344 -106.86460938 12.95554687 -105.66796875 12.96484375 C-104.78753906 12.97644531 -103.90710938 12.98804688 -103 13 C-103 12.34 -103 11.68 -103 11 C-101.02 11 -99.04 11 -97 11 C-97 9.35 -97 7.7 -97 6 C-97.66 6 -98.32 6 -99 6 C-99 5.34 -99 4.68 -99 4 C-101.64 4 -104.28 4 -107 4 C-107 4.66 -107 5.32 -107 6 C-115.6612586 7.25981943 -124.27001243 7.09020653 -133 7 C-133 6.01 -133 5.02 -133 4 C-128.3946849 2.85845405 -123.91845791 2.80327309 -119.20361328 2.73461914 C-118.32608902 2.71817856 -117.44856476 2.70173798 -116.54444885 2.68479919 C-114.63808772 2.64958144 -112.73168818 2.61639756 -110.82526016 2.58500862 C-107.77499569 2.53440444 -104.7248993 2.47766898 -101.67477417 2.41929626 C-93.00078163 2.25440966 -84.32660601 2.10040634 -75.65234375 1.95043945 C-69.3123558 1.84000142 -62.97254125 1.72207554 -56.6328125 1.59765625 C-55.09005016 1.56775541 -55.09005016 1.56775541 -53.51612091 1.53725052 C-39.21102452 1.25015658 -24.96238492 0.68517927 -10.697052 -0.4306488 C-8.99051956 -0.56274498 -8.99051956 -0.56274498 -7.24951172 -0.69750977 C-6.27392303 -0.7797731 -5.29833435 -0.86203644 -4.29318237 -0.9467926 C-2 -1 -2 -1 0 0 Z " fill="#111B2B" transform="translate(133,437)"/>
<path d="M0 0 C3.3 0 6.6 0 10 0 C10.495 1.98 10.495 1.98 11 4 C11.66 4 12.32 4 13 4 C13 5.32 13 6.64 13 8 C13.99 8 14.98 8 16 8 C16.33 7.01 16.66 6.02 17 5 C18.28892418 8.89995914 17.41914387 10.89147396 15.5859375 14.55078125 C15.22757813 15.23527344 14.86921875 15.91976563 14.5 16.625 C14.17257813 17.28628906 13.84515625 17.94757813 13.5078125 18.62890625 C11.41019422 22.7373992 9.01038112 26.50459119 6.34570312 30.27099609 C5.40458679 31.604496 5.40458679 31.604496 4.44445801 32.9649353 C3.72945129 33.97229233 3.72945129 33.97229233 3 35 C11.31019108 34.76200368 19.62021346 34.51898592 27.93006706 34.26950932 C31.78843428 34.15383321 35.64683678 34.03990466 39.50537109 33.92993164 C43.22724279 33.82378996 46.94895398 33.71310786 50.67059708 33.59924126 C52.09234961 33.55654718 53.51415272 33.51550507 54.93600082 33.4761219 C56.9234425 33.42079357 58.91070422 33.35911071 60.89794922 33.29711914 C62.03046112 33.26380997 63.16297302 33.23050079 64.32980347 33.19618225 C66.97255391 33.17225369 66.97255391 33.17225369 69 32 C67.16136296 36.77024165 63.98674192 37.98691833 59.5546875 40.09375 C56.36706243 41.22452831 54.18960512 41.0911807 51 40 C51.66 39.67 52.32 39.34 53 39 C53 38.34 53 37.68 53 37 C44.27457699 36.87147495 35.68991301 37.20354316 27 38 C27.99 38.66 28.98 39.32 30 40 C29.401875 40.0825 28.80375 40.165 28.1875 40.25 C25.4033704 41.20455872 24.56688858 42.57132271 23 45 C23 44.34 23 43.68 23 43 C22.01 43.33 21.02 43.66 20 44 C17.43365139 44.22718496 14.88321893 44.41608184 12.3125 44.5625 C11.2596582 44.62727539 11.2596582 44.62727539 10.18554688 44.69335938 C8.45724794 44.7991736 6.7286489 44.90006581 5 45 C5 45.66 5 46.32 5 47 C4.01 47 3.02 47 2 47 C1.26445397 43.96587261 1.02178409 41.58610233 1.1875 38.4375 C1.34725045 34.9561655 1.34725045 34.9561655 -0.875 32.8125 C-1.57625 32.214375 -2.2775 31.61625 -3 31 C-3.23847656 30.36707031 -3.47695312 29.73414063 -3.72265625 29.08203125 C-5.65792678 25.92759946 -8.1864271 25.26621882 -11.5625 23.875 C-12.18858154 23.61493164 -12.81466309 23.35486328 -13.4597168 23.08691406 C-17.03256908 21.64509988 -20.5394465 20.51678184 -24.3125 19.75 C-25.529375 19.5025 -26.74625 19.255 -28 19 C-28.33 18.34 -28.66 17.68 -29 17 C-25.34017193 15.78005731 -24.41884698 16.50973337 -21 18 C-20.34 18 -19.68 18 -19 18 C-18.67 16.68 -18.34 15.36 -18 14 C-17.34 14 -16.68 14 -16 14 C-16 10.37 -16 6.74 -16 3 C-13.45297384 1.72648692 -12.5717055 2.19808075 -9.875 2.9375 C-9.15054688 3.13214844 -8.42609375 3.32679688 -7.6796875 3.52734375 C-7.12539062 3.68332031 -6.57109375 3.83929688 -6 4 C-6 4.66 -6 5.32 -6 6 C-8.97 5.67 -11.94 5.34 -15 5 C-15 5.66 -15 6.32 -15 7 C-14.34 7 -13.68 7 -13 7 C-10.32072659 11.01891012 -10.84398752 13.24161923 -11 18 C-10.113125 17.7525 -9.22625 17.505 -8.3125 17.25 C-5 17 -5 17 -2.125 18.9375 C-1.42375 19.618125 -0.7225 20.29875 0 21 C-0.04125 19.80375 -0.0825 18.6075 -0.125 17.375 C-0.13851708 13.57670047 0.57990247 10.55024382 2 7 C1.34 7 0.68 7 0 7 C0 4.69 0 2.38 0 0 Z " fill="#071833" transform="translate(189,400)"/>
<path d="M0 0 C5.61 0 11.22 0 17 0 C16.34 1.65 15.68 3.3 15 5 C14.92353835 7.3320802 14.90856701 9.66845878 15 12 C14.01 12.33 13.02 12.66 12 13 C11.90912109 14.04800781 11.90912109 14.04800781 11.81640625 15.1171875 C11.73261719 16.02726562 11.64882813 16.93734375 11.5625 17.875 C11.48128906 18.77992188 11.40007812 19.68484375 11.31640625 20.6171875 C11 23 11 23 10 25 C7.10450497 25.1954384 4.20891002 25.38161395 1.3125 25.5625 C0.49587891 25.61857422 -0.32074219 25.67464844 -1.16210938 25.73242188 C-5.29514123 25.98341571 -8.95824282 26.11127743 -13 25 C-13 24.67 -13 24.34 -13 24 C-21.05358138 23.85474503 -28.97875848 24.28586721 -37 25 C-37 24.34 -37 23.68 -37 23 C-38.98 23 -40.96 23 -43 23 C-42.67 22.34 -42.34 21.68 -42 21 C-38.7 21 -35.4 21 -32 21 C-36.29 20.34 -40.58 19.68 -45 19 C-45 18.34 -45 17.68 -45 17 C-38.4 17 -31.8 17 -25 17 C-27.97 16.34 -30.94 15.68 -34 15 C-34 14.34 -34 13.68 -34 13 C-33.34 13 -32.68 13 -32 13 C-32 12.34 -32 11.68 -32 11 C-28.20732808 10.0639658 -25.06325435 10.01723748 -21.1875 10.4375 C-19.72376953 10.59025391 -19.72376953 10.59025391 -18.23046875 10.74609375 C-17.49441406 10.82988281 -16.75835937 10.91367187 -16 11 C-15.67 10.34 -15.34 9.68 -15 9 C-13.125 8.4375 -13.125 8.4375 -11 8 C-10.01 7.67 -9.02 7.34 -8 7 C-6.43881572 6.93259135 -4.8749748 6.91485544 -3.3125 6.9375 C-2.10013672 6.95103516 -2.10013672 6.95103516 -0.86328125 6.96484375 C0.05904297 6.98224609 0.05904297 6.98224609 1 7 C0.505 5.02 0.505 5.02 0 3 C2.64 3 5.28 3 8 3 C8 2.34 8 1.68 8 1 C5.36 1 2.72 1 0 1 C0 0.67 0 0.34 0 0 Z " fill="#202F42" transform="translate(432,433)"/>
<path d="M0 0 C0 0.33 0 0.66 0 1 C-1.65 1.33 -3.3 1.66 -5 2 C2.26 2.33 9.52 2.66 17 3 C17 3.66 17 4.32 17 5 C10.4 5 3.8 5 -3 5 C-2.01 6.485 -2.01 6.485 -1 8 C0.32 7.67 1.64 7.34 3 7 C3 7.66 3 8.32 3 9 C3.9075 8.690625 4.815 8.38125 5.75 8.0625 C11.04506536 6.52310987 16.52225363 6.34179698 22 6 C20.68 5.34 19.36 4.68 18 4 C23.23881814 1.8585312 27.78016085 1.73673605 33.3359375 1.8046875 C34.65496567 1.80893234 34.65496567 1.80893234 36.00064087 1.81326294 C38.79223594 1.82440288 41.5835029 1.84949589 44.375 1.875 C46.27473493 1.8850378 48.17447492 1.89416225 50.07421875 1.90234375 C54.71627107 1.92432194 59.35808002 1.9588089 64 2 C64 2.66 64 3.32 64 4 C65.32 4 66.64 4 68 4 C68 4.99 68 5.98 68 7 C65.76463489 8.11768256 64.22147847 8.25362333 61.73828125 8.46484375 C60.87291748 8.5417041 60.00755371 8.61856445 59.1159668 8.69775391 C58.19082275 8.77687012 57.26567871 8.85598633 56.3125 8.9375 C47.50089509 9.72858564 38.7561569 10.73567012 30 12 C30 11.34 30 10.68 30 10 C32.95664519 8.5216774 35.74229737 8.93967217 39 9 C37.14209924 7.14209924 34.57527841 7.82050293 32.10546875 7.76953125 C29.96824213 7.87009556 29.96824213 7.87009556 28.1796875 8.98046875 C24.15122267 10.86475069 19.59929352 10.47222273 15.21484375 10.65625 C11.85084077 10.76498365 11.85084077 10.76498365 9 13 C6.90350447 12.96618556 4.80700334 12.92926708 2.7109375 12.875 C-0.42673426 13.01967651 -3.20505851 13.67073507 -6.25 14.4375 C-12.85496134 16.09068985 -19.20684581 16.62674977 -26 17 C-26 11.72 -26 6.44 -26 1 C-7.85714286 -0.14285714 -7.85714286 -0.14285714 0 0 Z " fill="#19212F" transform="translate(26,496)"/>
<path d="M0 0 C5.36959001 3.57972667 8.2708643 11.03484817 9.76171875 17.09765625 C10.23897131 19.72085293 10.62767351 22.35986671 11 25 C11 19.06 11 13.12 11 7 C11.33 7 11.66 7 12 7 C12 8.65 12 10.3 12 12 C16.455 11.505 16.455 11.505 21 11 C19.125 16.875 19.125 16.875 18 18 C17.814375 19.794375 17.814375 19.794375 17.625 21.625 C17.23206949 25.09997922 16.29060586 27.8056999 14.8203125 30.99609375 C10.72457372 41.00139848 9.65392067 52.37746941 8 63 C7.89268555 63.68497559 7.78537109 64.36995117 7.67480469 65.07568359 C7.10565915 68.7155048 6.5471228 72.35680581 6 76 C4.515 76.495 4.515 76.495 3 77 C3.28851703 74.43710936 3.58004653 71.87465341 3.875 69.3125 C3.96305908 68.54607178 4.05111816 67.77964355 4.1418457 66.98999023 C4.83345594 61.10549398 5.7148415 55.27943628 6.73046875 49.44140625 C7.22397246 46.99572712 7.22397246 46.99572712 6 45 C6.66 45 7.32 45 8 45 C9.91958154 36.12193539 9.28498363 27.71150008 7 19 C6.34 19 5.68 19 5 19 C3.35 14.38 1.7 9.76 0 5 C-6.53394112 5.19684273 -6.53394112 5.19684273 -8.453125 7.5234375 C-8.71609375 8.13445312 -8.9790625 8.74546875 -9.25 9.375 C-10.56349801 12.13110053 -11.77890747 13.87986622 -14 16 C-15.58913558 18.67643887 -16 19.8180056 -16 23 C-17.65532623 24.01866229 -19.32260138 25.01810813 -21 26 C-21.33 26.99 -21.66 27.98 -22 29 C-21.34 29.33 -20.68 29.66 -20 30 C-20.66 30.66 -21.32 31.32 -22 32 C-22.04165763 33.99956611 -22.04165763 36.00043389 -22 38 C-22.33 38.66 -22.66 39.32 -23 40 C-22.34 40.33 -21.68 40.66 -21 41 C-21 41.99 -21 42.98 -21 44 C-21.66 44 -22.32 44 -23 44 C-26.09721227 53.29163682 -23.82160992 65.34608349 -23 75 C-22.34 75 -21.68 75 -21 75 C-19.73762269 77.52475462 -19.90143596 79.31200466 -19.9375 82.125 C-19.94652344 83.03507813 -19.95554688 83.94515625 -19.96484375 84.8828125 C-19.97644531 85.58148437 -19.98804688 86.28015625 -20 87 C-23.24166524 82.13750213 -24.49259781 78.2514362 -25.125 72.4375 C-25.2084668 71.67244141 -25.29193359 70.90738281 -25.37792969 70.11914062 C-26.08341365 62.75331212 -26.21665982 55.39596399 -26.25 48 C-26.25918457 46.86747803 -26.26836914 45.73495605 -26.27783203 44.56811523 C-26.24434843 35.46660407 -25.64272261 27.01924814 -21 19 C-20.34 19 -19.68 19 -19 19 C-18.9175 18.443125 -18.835 17.88625 -18.75 17.3125 C-18 15 -18 15 -16.1875 12.75 C-13.90012061 9.87443733 -12.56176538 7.12412186 -11.125 3.76953125 C-8.55193627 -0.27768358 -4.46039604 -0.55754951 0 0 Z M-25 40 C-24 42 -24 42 -24 42 Z " fill="#050C1B" transform="translate(206,469)"/>
<path d="M0 0 C1 2 1 2 0.44140625 4.1640625 C0.15136719 4.97617187 -0.13867188 5.78828125 -0.4375 6.625 C-0.86869141 7.85089844 -0.86869141 7.85089844 -1.30859375 9.1015625 C-1.53675781 9.72804688 -1.76492188 10.35453125 -2 11 C-3.11117187 10.9278125 -4.22234375 10.855625 -5.3671875 10.78125 C-13.25821735 10.28368141 -21.08888983 9.87442682 -29 10 C-29 10.66 -29 11.32 -29 12 C-28.34 12 -27.68 12 -27 12 C-27 12.66 -27 13.32 -27 14 C-28.1446875 14.2165625 -28.1446875 14.2165625 -29.3125 14.4375 C-32.08172908 14.9632594 -32.08172908 14.9632594 -35 16 C-37.88268515 16.04530743 -40.74399656 16.04754131 -43.625 16 C-46.42257853 15.95428793 -49.20112575 15.95286107 -52 16 C-52.495 16.495 -52.495 16.495 -53 17 C-56.30312897 17.07279623 -59.5952085 16.99609386 -62.8984375 16.9375 C-66.03643965 16.84711854 -66.03643965 16.84711854 -69 18 C-69.66 17.67 -70.32 17.34 -71 17 C-71.33 17.66 -71.66 18.32 -72 19 C-72.66 18.67 -73.32 18.34 -74 18 C-74 17.34 -74 16.68 -74 16 C-75.65 16 -77.3 16 -79 16 C-79 15.34 -79 14.68 -79 14 C-79.65226562 13.87882812 -80.30453125 13.75765625 -80.9765625 13.6328125 C-85.78646342 12.71056011 -90.39025465 11.69832723 -95 10 C-91.16680339 8.78198748 -87.32355741 8.80082288 -83.34155273 8.73461914 C-82.57525543 8.71817856 -81.80895813 8.70173798 -81.0194397 8.68479919 C-79.35909877 8.6496073 -77.69871441 8.6164197 -76.03829765 8.58500862 C-73.41163738 8.53473602 -70.78519187 8.47797149 -68.15870667 8.41929626 C-60.69234061 8.25340477 -53.22579974 8.09719649 -45.7590332 7.95043945 C-41.18957212 7.86017277 -36.6203918 7.76059018 -32.05125618 7.65517998 C-30.30938279 7.61690191 -28.56742567 7.58225711 -26.82540703 7.5512867 C-24.39300965 7.50785517 -21.96114315 7.45264874 -19.52905273 7.39477539 C-18.8074144 7.38483551 -18.08577606 7.37489563 -17.3422699 7.36465454 C-13.69660757 7.26495808 -12.11761261 7.0784084 -9 5 C-6.95703125 4.8046875 -6.95703125 4.8046875 -4.8125 4.875 C-3.554375 4.91625 -2.29625 4.9575 -1 5 C-0.67 3.35 -0.34 1.7 0 0 Z " fill="#121D2B" transform="translate(451,421)"/>
<path d="M0 0 C1.31902817 0.00424484 1.31902817 0.00424484 2.66470337 0.00857544 C5.45629844 0.01971538 8.2475654 0.04480839 11.0390625 0.0703125 C12.93879743 0.0803503 14.83853742 0.08947475 16.73828125 0.09765625 C21.38033357 0.11963444 26.02214252 0.1541214 30.6640625 0.1953125 C30.6640625 0.8553125 30.6640625 1.5153125 30.6640625 2.1953125 C31.9840625 2.1953125 33.3040625 2.1953125 34.6640625 2.1953125 C34.6640625 3.1853125 34.6640625 4.1753125 34.6640625 5.1953125 C32.42869739 6.31299506 30.88554097 6.44893583 28.40234375 6.66015625 C27.1042981 6.77544678 27.1042981 6.77544678 25.7800293 6.89306641 C24.39231323 7.01174072 24.39231323 7.01174072 22.9765625 7.1328125 C14.16495759 7.92389814 5.4202194 8.93098262 -3.3359375 10.1953125 C-3.3359375 9.5353125 -3.3359375 8.8753125 -3.3359375 8.1953125 C-0.37929231 6.7169899 2.40635987 7.13498467 5.6640625 7.1953125 C3.80616174 5.33741174 1.23934091 6.01581543 -1.23046875 5.96484375 C-3.37331416 6.06793715 -3.37331416 6.06793715 -5.19702148 7.18383789 C-7.51199678 8.27856939 -9.12041614 8.50036158 -11.6640625 8.609375 C-12.46328125 8.64804687 -13.2625 8.68671875 -14.0859375 8.7265625 C-15.3234375 8.77296875 -15.3234375 8.77296875 -16.5859375 8.8203125 C-17.84664062 8.87832031 -17.84664062 8.87832031 -19.1328125 8.9375 C-21.20017132 9.03147086 -23.26802377 9.11446814 -25.3359375 9.1953125 C-24.71875 7.2421875 -24.71875 7.2421875 -23.3359375 5.1953125 C-20.515625 4.5859375 -20.515625 4.5859375 -17.2109375 4.4453125 C-16.11523438 4.38859375 -15.01953125 4.331875 -13.890625 4.2734375 C-13.04757813 4.24765625 -12.20453125 4.221875 -11.3359375 4.1953125 C-12.6559375 3.5353125 -13.9759375 2.8753125 -15.3359375 2.1953125 C-10.09711936 0.0538437 -5.55577665 -0.06795145 0 0 Z " fill="#121923" transform="translate(59.3359375,497.8046875)"/>
<path d="M0 0 C-0.33 2.97 -0.66 5.94 -1 9 C-12.08582928 11.68205547 -22.60204682 12.14781207 -34 12 C-34 11.34 -34 10.68 -34 10 C-32.35 9.67 -30.7 9.34 -29 9 C-31.31 8.67 -33.62 8.34 -36 8 C-36.33 5.69 -36.66 3.38 -37 1 C-24.66826776 -0.19684056 -12.37632072 -0.10396237 0 0 Z " fill="#202A3A" transform="translate(436,481)"/>
<path d="M0 0 C2.64 0 5.28 0 8 0 C8 0.66 8 1.32 8 2 C8.66 2 9.32 2 10 2 C10.495 4.475 10.495 4.475 11 7 C8.3333581 8.33332095 6.83319697 7.67102033 4 7 C4 7.66 4 8.32 4 9 C2.12054687 9.18175781 2.12054687 9.18175781 0.203125 9.3671875 C-1.44795865 9.53604833 -3.09899809 9.70534183 -4.75 9.875 C-5.9875 9.99294922 -5.9875 9.99294922 -7.25 10.11328125 C-8.04921875 10.19707031 -8.8484375 10.28085937 -9.671875 10.3671875 C-10.4050293 10.44050293 -11.13818359 10.51381836 -11.89355469 10.58935547 C-14.2024371 11.03946444 -15.92420669 11.91640978 -18 13 C-20.140625 13.1953125 -20.140625 13.1953125 -22.25 13.125 C-24.10625 13.063125 -24.10625 13.063125 -26 13 C-26 9.7 -26 6.4 -26 3 C-17.42 2.67 -8.84 2.34 0 2 C0 1.34 0 0.68 0 0 Z " fill="#09111E" transform="translate(26,441)"/>
<path d="M0 0 C0 0.99 0 1.98 0 3 C-1.609375 4.3515625 -1.609375 4.3515625 -3.75 5.625 C-4.44609375 6.05039062 -5.1421875 6.47578125 -5.859375 6.9140625 C-9.94372559 8.98605057 -12.56087911 9.10978022 -17 8 C-16.34 7.67 -15.68 7.34 -15 7 C-15 6.34 -15 5.68 -15 5 C-23.72542301 4.87147495 -32.31008699 5.20354316 -41 6 C-40.01 6.66 -39.02 7.32 -38 8 C-46.91 8 -55.82 8 -65 8 C-65 6.35 -65 4.7 -65 3 C-63.8006356 2.96574669 -63.8006356 2.96574669 -62.57704163 2.93080139 C-55.05725301 2.71518512 -47.53762036 2.49496272 -40.01812077 2.26950932 C-36.15187963 2.15375388 -32.28560252 2.03980706 -28.41918945 1.92993164 C-24.69083449 1.82391398 -20.96264527 1.71322648 -17.23452568 1.59924126 C-15.809157 1.55649425 -14.38373605 1.5154563 -12.95826912 1.4761219 C-10.9682256 1.42092197 -8.97836651 1.35918804 -6.98852539 1.29711914 C-5.85379288 1.26380997 -4.71906036 1.23050079 -3.54994202 1.19618225 C-1.06639386 1.28332108 -1.06639386 1.28332108 0 0 Z " fill="#132133" transform="translate(257,432)"/>
<path d="M0 0 C0.99 0.66 1.98 1.32 3 2 C2.67 2.66 2.34 3.32 2 4 C0.34164335 4.2665216 -1.32824523 4.46246829 -3 4.625 C-8.86141056 5.56130325 -11.82919012 7.85668577 -15.9296875 12.02734375 C-19.57596336 15.50162547 -21.89965495 17 -27 17 C-27 15.68 -27 14.36 -27 13 C-34.19943906 12.67017126 -34.19943906 12.67017126 -41.1875 14.0625 C-45.11638715 15.37212905 -47.94231606 14.69960068 -52 14 C-49.73537559 11.73537559 -49.00162426 11.63990238 -45.9375 11.18359375 C-45.14085937 11.05919922 -44.34421875 10.93480469 -43.5234375 10.80664062 C-42.69070312 10.68482422 -41.85796875 10.56300781 -41 10.4375 C-39.35373651 10.18903144 -37.70787872 9.93785535 -36.0625 9.68359375 C-34.96615234 9.52201782 -34.96615234 9.52201782 -33.84765625 9.35717773 C-31.91462788 9.06953151 -31.91462788 9.06953151 -30 8 C-26.4375 7.875 -26.4375 7.875 -23 8 C-22.67 8.33 -22.34 8.66 -22 9 C-19.66055264 8.71269945 -17.3260857 8.38063221 -15 8 C-15 7.34 -15 6.68 -15 6 C-18.3 6 -21.6 6 -25 6 C-24.34 4.68 -23.68 3.36 -23 2 C-22.11477661 2.01571045 -22.11477661 2.01571045 -21.21166992 2.03173828 C-18.53698996 2.07332044 -15.86237803 2.0993329 -13.1875 2.125 C-12.25873047 2.14175781 -11.32996094 2.15851562 -10.37304688 2.17578125 C-9.48037109 2.18222656 -8.58769531 2.18867187 -7.66796875 2.1953125 C-6.84578857 2.20578613 -6.0236084 2.21625977 -5.17651367 2.22705078 C-2.70578408 2.13996135 -2.70578408 2.13996135 0 0 Z " fill="#0F1118" transform="translate(67,540)"/>
<path d="M0 0 C1 2 1 2 0.44140625 4.1640625 C0.15136719 4.97617187 -0.13867188 5.78828125 -0.4375 6.625 C-0.86869141 7.85089844 -0.86869141 7.85089844 -1.30859375 9.1015625 C-1.53675781 9.72804688 -1.76492188 10.35453125 -2 11 C-3.11117187 10.9278125 -4.22234375 10.855625 -5.3671875 10.78125 C-13.25821735 10.28368141 -21.08888983 9.87442682 -29 10 C-29 10.66 -29 11.32 -29 12 C-36.39751112 11.91570237 -43.79480722 11.82086085 -51.19200706 11.71247292 C-54.62666136 11.66247962 -58.06128445 11.61615022 -61.49609375 11.578125 C-65.44288688 11.5342726 -69.38936366 11.47460852 -73.3359375 11.4140625 C-74.57242035 11.40251129 -75.8089032 11.39096008 -77.08285522 11.37905884 C-78.22388702 11.35918915 -79.36491882 11.33931946 -80.54052734 11.31884766 C-81.548685 11.30552399 -82.55684265 11.29220032 -83.59555054 11.2784729 C-86 11 -86 11 -88 9 C-86.58179207 8.96907761 -86.58179207 8.96907761 -85.13493347 8.93753052 C-76.23235029 8.74216563 -67.33004993 8.53670779 -58.42792797 8.32132149 C-53.85105722 8.21091018 -49.2741608 8.10407831 -44.69702148 8.00537109 C-40.28127466 7.9100135 -35.86583934 7.80532627 -31.45046425 7.6941185 C-29.764415 7.65330305 -28.07828037 7.61587154 -26.39208031 7.58185196 C-24.03345207 7.53369229 -21.67541192 7.47359629 -19.31713867 7.41064453 C-18.61726837 7.39913361 -17.91739807 7.38762268 -17.19631958 7.37576294 C-13.59757779 7.26629294 -12.08205276 7.05470184 -9 5 C-6.95703125 4.8046875 -6.95703125 4.8046875 -4.8125 4.875 C-3.554375 4.91625 -2.29625 4.9575 -1 5 C-0.67 3.35 -0.34 1.7 0 0 Z " fill="#19273E" transform="translate(451,421)"/>
<path d="M0 0 C2.9719385 1.12451727 5.33440687 2.22293791 8 4 C8.33 3.01 8.66 2.02 9 1 C10.9375 1.625 10.9375 1.625 13 3 C13.75 6.125 13.75 6.125 14 9 C15.98 9.66 17.96 10.32 20 11 C19.75 12.875 19.75 12.875 19 15 C18.34 15.268125 17.68 15.53625 17 15.8125 C14.74358016 16.83370299 14.74358016 16.83370299 14.390625 19.3828125 C14.32101563 20.74019531 14.32101563 20.74019531 14.25 22.125 C14.19328125 23.03507812 14.1365625 23.94515625 14.078125 24.8828125 C14.05234375 25.58148438 14.0265625 26.28015625 14 27 C13.34 27 12.68 27 12 27 C12 26.01 12 25.02 12 24 C11.34 24 10.68 24 10 24 C10 22.35 10 20.7 10 19 C7.36 19 4.72 19 2 19 C2.144375 18.29875 2.28875 17.5975 2.4375 16.875 C2.623125 15.92625 2.80875 14.9775 3 14 C3.268125 13.071875 3.53625 12.14375 3.8125 11.1875 C4.07659206 6.69793502 2.24299733 3.79287961 0 0 Z " fill="#496088" transform="translate(190,380)"/>
<path d="M0 0 C11.22 0 22.44 0 34 0 C33.67 0.66 33.34 1.32 33 2 C30.27734375 2.4140625 30.27734375 2.4140625 26.9375 2.625 C25.83277344 2.69976562 24.72804688 2.77453125 23.58984375 2.8515625 C22.73519531 2.90054687 21.88054687 2.94953125 21 3 C21.95261719 2.98839844 22.90523437 2.97679687 23.88671875 2.96484375 C25.14097656 2.95582031 26.39523438 2.94679688 27.6875 2.9375 C28.92886719 2.92589844 30.17023438 2.91429687 31.44921875 2.90234375 C35 3 35 3 37.76953125 3.56640625 C40.15809155 4.22032952 40.15809155 4.22032952 43 3 C42.67 4.32 42.34 5.64 42 7 C37.49786378 7.16773186 32.99555027 7.32827877 28.49291992 7.48217773 C26.96127431 7.53554122 25.42969573 7.59086614 23.89819336 7.64819336 C21.69659883 7.73026252 19.49485949 7.80527067 17.29296875 7.87890625 C16.60849167 7.90594131 15.92401459 7.93297638 15.21879578 7.96083069 C12.1530145 8.05703182 9.94080618 7.98026873 7 7 C5.10787263 6.77820215 3.21115528 6.59385985 1.3125 6.4375 C0.31863281 6.35371094 -0.67523438 6.26992188 -1.69921875 6.18359375 C-2.83810547 6.09271484 -2.83810547 6.09271484 -4 6 C-4 5.67 -4 5.34 -4 5 C-0.37 5 3.26 5 7 5 C6.67 4.34 6.34 3.68 6 3 C3.67843403 2.59270772 1.3431213 2.25561323 -1 2 C-0.67 1.34 -0.34 0.68 0 0 Z " fill="#131A26" transform="translate(57,458)"/>
<path d="M0 0 C8.39802254 -0.12190678 16.64251778 0.15672251 25 1 C24.67 3.64 24.34 6.28 24 9 C16.08 9 8.16 9 0 9 C0.33 7.35 0.66 5.7 1 4 C0.63143136 1.76832815 0.63143136 1.76832815 0 0 Z " fill="#1D283A" transform="translate(414,470)"/>
<path d="M0 0 C3.43734063 -0.08703823 6.87439837 -0.14040272 10.3125 -0.1875 C11.28896484 -0.21263672 12.26542969 -0.23777344 13.27148438 -0.26367188 C14.20927734 -0.27333984 15.14707031 -0.28300781 16.11328125 -0.29296875 C16.97735596 -0.3086792 17.84143066 -0.32438965 18.73168945 -0.34057617 C21.45018536 0.06759322 22.30363829 0.89592904 24 3 C23.67 3.66 23.34 4.32 23 5 C22.34 4.34 21.68 3.68 21 3 C18.45803973 2.94059959 18.45803973 2.94059959 15.625 3.3125 C14.66851562 3.41175781 13.71203125 3.51101563 12.7265625 3.61328125 C10.10550057 3.93474899 10.10550057 3.93474899 8.0078125 4.5078125 C5.43018857 5.1396814 2.89332758 5.3422227 0.25 5.5625 C-0.73484375 5.64628906 -1.7196875 5.73007812 -2.734375 5.81640625 C-3.48203125 5.87699219 -4.2296875 5.93757813 -5 6 C-5 6.66 -5 7.32 -5 8 C-5.66 8 -6.32 8 -7 8 C-7.12375 8.61875 -7.2475 9.2375 -7.375 9.875 C-8 12 -8 12 -10 14 C-10.66 14 -11.32 14 -12 14 C-12.33 13.34 -12.66 12.68 -13 12 C-15.87404849 15.87371753 -16.37530363 18.98814504 -16.75 23.640625 C-17.12802837 27.20826778 -18.0570781 30.5426197 -19 34 C-19.33 34 -19.66 34 -20 34 C-21.2057674 17.3297872 -21.2057674 17.3297872 -16.6875 11.625 C-15.50021599 10.37548937 -14.27341115 9.16161275 -13 8 C-12.52433594 7.46246094 -12.04867188 6.92492187 -11.55859375 6.37109375 C-9.60551345 4.65297047 -7.86581784 4.14742365 -5.375 3.4375 C-3.01593777 2.79864318 -3.01593777 2.79864318 -1 2 C-0.67 1.34 -0.34 0.68 0 0 Z " fill="#10151F" transform="translate(309,338)"/>
<path d="M0 0 C0.66 0 1.32 0 2 0 C2.12375 1.134375 2.2475 2.26875 2.375 3.4375 C2.58125 4.613125 2.7875 5.78875 3 7 C3.66 7.33 4.32 7.66 5 8 C5.042721 9.66611905 5.04063832 11.33382885 5 13 C4.67 13.33 4.34 13.66 4 14 C3.76924918 15.34747084 3.58846937 16.70377565 3.4375 18.0625 C3.293125 19.361875 3.14875 20.66125 3 22 C2.01 21.67 1.02 21.34 0 21 C0 20.34 0 19.68 0 19 C-2.64 19 -5.28 19 -8 19 C-8.22786458 17.01432292 -8.45572917 15.02864583 -8.68359375 13.04296875 C-8.97170735 10.80603607 -8.97170735 10.80603607 -10 8 C-10.66 8 -11.32 8 -12 8 C-12 7.34 -12 6.68 -12 6 C-9.03 6.33 -6.06 6.66 -3 7 C-2.690625 6.030625 -2.38125 5.06125 -2.0625 4.0625 C-1 1 -1 1 0 0 Z " fill="#34455E" transform="translate(186,399)"/>
<path d="M0 0 C5.61 0 11.22 0 17 0 C16.34 1.65 15.68 3.3 15 5 C14.92353835 7.3320802 14.90856701 9.66845878 15 12 C14.34 12.33 13.68 12.66 13 13 C13 11.35 13 9.7 13 8 C8.38 8.33 3.76 8.66 -1 9 C-1 9.33 -1 9.66 -1 10 C-7.43075251 12.26967735 -13.66016946 12.43193658 -20.4375 12.625 C-21.55060547 12.66367187 -22.66371094 12.70234375 -23.81054688 12.7421875 C-26.54020476 12.83590966 -29.26986563 12.92162294 -32 13 C-32 12.34 -32 11.68 -32 11 C-28.20732808 10.0639658 -25.06325435 10.01723748 -21.1875 10.4375 C-19.72376953 10.59025391 -19.72376953 10.59025391 -18.23046875 10.74609375 C-17.49441406 10.82988281 -16.75835937 10.91367187 -16 11 C-15.67 10.34 -15.34 9.68 -15 9 C-13.125 8.4375 -13.125 8.4375 -11 8 C-10.01 7.67 -9.02 7.34 -8 7 C-6.43881572 6.93259135 -4.8749748 6.91485544 -3.3125 6.9375 C-2.10013672 6.95103516 -2.10013672 6.95103516 -0.86328125 6.96484375 C0.05904297 6.98224609 0.05904297 6.98224609 1 7 C0.505 5.02 0.505 5.02 0 3 C2.64 3 5.28 3 8 3 C8 2.34 8 1.68 8 1 C5.36 1 2.72 1 0 1 C0 0.67 0 0.34 0 0 Z " fill="#0D1727" transform="translate(432,433)"/>
<path d="M0 0 C1.22589844 0.01353516 1.22589844 0.01353516 2.4765625 0.02734375 C3.10304688 0.03894531 3.72953125 0.05054688 4.375 0.0625 C4.045 2.0425 3.715 4.0225 3.375 6.0625 C0.47950497 6.2579384 -2.41608998 6.44411395 -5.3125 6.625 C-6.12912109 6.68107422 -6.94574219 6.73714844 -7.78710938 6.79492188 C-11.92014123 7.04591571 -15.58324282 7.17377743 -19.625 6.0625 C-19.625 5.7325 -19.625 5.4025 -19.625 5.0625 C-27.67858138 4.91724503 -35.60375848 5.34836721 -43.625 6.0625 C-43.625 5.4025 -43.625 4.7425 -43.625 4.0625 C-45.605 4.0625 -47.585 4.0625 -49.625 4.0625 C-49.295 3.4025 -48.965 2.7425 -48.625 2.0625 C-46.84222656 2.07990234 -46.84222656 2.07990234 -45.0234375 2.09765625 C-35.50396518 2.16073124 -26.01147146 2.04015202 -16.5 1.625 C-15.54657715 1.58576416 -14.5931543 1.54652832 -13.61083984 1.50610352 C-12.72605957 1.46412842 -11.8412793 1.42215332 -10.9296875 1.37890625 C-10.14577637 1.34224854 -9.36186523 1.30559082 -8.55419922 1.26782227 C-5.46383621 0.93891879 -3.26630487 -0.0466615 0 0 Z " fill="#1B2635" transform="translate(438.625,451.9375)"/>
<path d="M0 0 C1.03125 -0.01417969 2.0625 -0.02835937 3.125 -0.04296875 C5.96545203 0.18473053 7.59107948 0.72245939 10 2.1875 C1.41585788 10.77164212 -38.86734065 5.24855039 -51.94750977 5.25561523 C-58.29843341 5.25072179 -64.64919818 5.22721925 -71 5.1875 C-71 4.8575 -71 4.5275 -71 4.1875 C-63.67158828 3.35264491 -56.37746477 2.93597632 -49.0078125 2.6875 C-46.73437337 2.60421128 -44.46093591 2.52087662 -42.1875 2.4375 C-38.63904182 2.31119226 -35.09053882 2.18629776 -31.54199219 2.0625 C-28.09296063 1.94104854 -24.64414324 1.81450764 -21.1953125 1.6875 C-20.13176544 1.65205078 -19.06821838 1.61660156 -17.97244263 1.58007812 C-16.48972366 1.5249707 -16.48972366 1.5249707 -14.97705078 1.46875 C-13.67660324 1.42331055 -13.67660324 1.42331055 -12.34988403 1.37695312 C-8.12212492 1.03610134 -4.30986051 0.02693663 0 0 Z " fill="#1D2533" transform="translate(103,445.8125)"/>
<path d="M0 0 C0 0.99 0 1.98 0 3 C1.65 3 3.3 3 5 3 C5 3.33 5 3.66 5 4 C-0.4585742 4.02499523 -5.91711401 4.04299763 -11.37573242 4.05493164 C-13.22697532 4.05991458 -15.07821437 4.06670335 -16.92944336 4.07543945 C-27.34061559 4.1232875 -37.6318437 4.06306261 -48 3 C-44.63272973 0.98509172 -41.94190392 0.70246567 -38.046875 0.5859375 C-36.29165527 0.52780884 -36.29165527 0.52780884 -34.50097656 0.46850586 C-33.2631543 0.43764893 -32.02533203 0.40679199 -30.75 0.375 C-29.49413086 0.33705322 -28.23826172 0.29910645 -26.94433594 0.26000977 C-17.96129289 0.00469126 -8.98606766 -0.12558169 0 0 Z " fill="#060E1B" transform="translate(87,444)"/>
<path d="M0 0 C1.65 0.33 3.3 0.66 5 1 C5 1.66 5 2.32 5 3 C6.98 3 8.96 3 11 3 C11 3.66 11 4.32 11 5 C12.093125 4.95875 13.18625 4.9175 14.3125 4.875 C18 5 18 5 21 7 C20 8 20 8 16.125 8.125 C10.72069776 8.07278452 5.37183894 7.56228595 0 7 C0 7.66 0 8.32 0 9 C1.010625 8.95875 2.02125 8.9175 3.0625 8.875 C9.75287334 8.85080335 16.39354739 10.03655899 23 11 C23 11.33 23 11.66 23 12 C22.40985107 11.99476318 21.81970215 11.98952637 21.21166992 11.98413086 C18.53695745 11.96333953 15.86226199 11.95033299 13.1875 11.9375 C11.7943457 11.92493164 11.7943457 11.92493164 10.37304688 11.91210938 C9.48037109 11.90888672 8.58769531 11.90566406 7.66796875 11.90234375 C6.84578857 11.89710693 6.0236084 11.89187012 5.17651367 11.88647461 C2.81827404 11.91258476 2.81827404 11.91258476 0 13 C-0.45375 11.865625 -0.9075 10.73125 -1.375 9.5625 C-2.57095806 5.95278308 -2.57095806 5.95278308 -5 5 C-4.67 4.01 -4.34 3.02 -4 2 C-2.02 2.495 -2.02 2.495 0 3 C0 2.01 0 1.02 0 0 Z " fill="#111D2B" transform="translate(387,443)"/>
<path d="M0 0 C-1.32 0.99 -2.64 1.98 -4 3 C-4 2.34 -4 1.68 -4 1 C-9.07648175 3.78387709 -13.4833069 7.40829416 -18 11 C-17.67 11.66 -17.34 12.32 -17 13 C-17.9375 15.125 -17.9375 15.125 -19 17 C-19.66 17 -20.32 17 -21 17 C-21.33 18.98 -21.66 20.96 -22 23 C-21.34 23 -20.68 23 -20 23 C-20.92561983 28.68595041 -20.92561983 28.68595041 -21.5625 31.375 C-21.95686129 33.74116776 -21.99840709 35.74092243 -21.9375 38.125 C-22 42 -22 42 -24 45 C-24.05840224 40.81255925 -24.09373166 36.62522435 -24.125 32.4375 C-24.14175781 31.25607422 -24.15851563 30.07464844 -24.17578125 28.85742188 C-24.25628391 14.48769764 -24.25628391 14.48769764 -19.5625 9.3125 C-18.716875 8.549375 -17.87125 7.78625 -17 7 C-16.443125 6.236875 -15.88625 5.47375 -15.3125 4.6875 C-14.6628125 3.8521875 -14.6628125 3.8521875 -14 3 C-13.34 3 -12.68 3 -12 3 C-12 2.34 -12 1.68 -12 1 C-10.37681021 0.63762737 -8.7513642 0.28534843 -7.125 -0.0625 C-6.22007812 -0.25972656 -5.31515625 -0.45695312 -4.3828125 -0.66015625 C-2 -1 -2 -1 0 0 Z " fill="#09101A" transform="translate(518,319)"/>
<path d="M0 0 C1.79244141 0.01740234 1.79244141 0.01740234 3.62109375 0.03515625 C5.41740234 0.04869141 5.41740234 0.04869141 7.25 0.0625 C8.17683594 0.07410156 9.10367187 0.08570313 10.05859375 0.09765625 C10.41982256 1.40823018 10.77239686 2.72119249 11.12109375 4.03515625 C11.31832031 4.76605469 11.51554687 5.49695313 11.71875 6.25 C11.83089844 6.85972656 11.94304687 7.46945312 12.05859375 8.09765625 C10.02460271 10.13164729 6.06461765 9.59717708 3.30859375 9.81640625 C1.09194023 9.8596629 1.09194023 9.8596629 0.05859375 11.09765625 C-0.60140625 11.75765625 -1.26140625 12.41765625 -1.94140625 13.09765625 C-2.30238688 11.11972104 -2.65501973 9.14026052 -3.00390625 7.16015625 C-3.20113281 6.05800781 -3.39835937 4.95585938 -3.6015625 3.8203125 C-3.71371094 2.92183594 -3.82585937 2.02335938 -3.94140625 1.09765625 C-2.94140625 0.09765625 -2.94140625 0.09765625 0 0 Z " fill="#141923" transform="translate(415.94140625,529.90234375)"/>
<path d="M0 0 C1.11375 0.1546875 1.11375 0.1546875 2.25 0.3125 C2.0625 3.125 2.0625 3.125 1.25 6.3125 C-1.1875 8.0625 -1.1875 8.0625 -3.75 9.3125 C-4.41 9.9725 -5.07 10.6325 -5.75 11.3125 C-4.1 11.6425 -2.45 11.9725 -0.75 12.3125 C-1.245 12.76625 -1.74 13.22 -2.25 13.6875 C-3.97609337 15.18885519 -3.97609337 15.18885519 -3.75 17.3125 C-1.275 18.3025 -1.275 18.3025 1.25 19.3125 C0.26 19.6425 -0.73 19.9725 -1.75 20.3125 C-4.74862255 21.43698346 -7.06291672 22.52111115 -9.75 24.3125 C-9.63534579 22.08277727 -9.50785234 19.85371247 -9.375 17.625 C-9.30539063 16.38363281 -9.23578125 15.14226562 -9.1640625 13.86328125 C-8.5076435 8.23417869 -6.46425623 0.73457457 0 0 Z " fill="#102A52" transform="translate(150.75,379.6875)"/>
<path d="M0 0 C0.33 0 0.66 0 1 0 C1 1.65 1 3.3 1 5 C5.455 4.505 5.455 4.505 10 4 C8.125 9.875 8.125 9.875 7 11 C6.814375 12.794375 6.814375 12.794375 6.625 14.625 C6.16024478 18.815293 4.74118445 22.15488433 3 26 C2.30859478 28.77888613 2.30859478 28.77888613 2 31 C1.67 31 1.34 31 1 31 C-0.32378398 20.69339617 -0.09139066 10.36776236 0 0 Z " fill="#0C1117" transform="translate(217,476)"/>
<path d="M0 0 C0.99 0 1.98 0 3 0 C3 2.64 3 5.28 3 8 C10.59 8 18.18 8 26 8 C25.34 9.65 24.68 11.3 24 13 C23.67 12.34 23.34 11.68 23 11 C22.01 11.33 21.02 11.66 20 12 C17.43365139 12.22718496 14.88321893 12.41608184 12.3125 12.5625 C11.61060547 12.60568359 10.90871094 12.64886719 10.18554688 12.69335938 C8.45724794 12.7991736 6.7286489 12.90006581 5 13 C5 13.66 5 14.32 5 15 C4.01 15 3.02 15 2 15 C1.01529093 10.93807508 1 7.16559228 1 3 C0.67 2.01 0.34 1.02 0 0 Z " fill="#070D19" transform="translate(189,432)"/>
<path d="M0 0 C-1.875 4.875 -1.875 4.875 -3 6 C-7.78125726 6.33587344 -12.3278949 6.06790974 -17 5 C-18.32 5 -19.64 5 -21 5 C-21.33 5.66 -21.66 6.32 -22 7 C-22.66 7 -23.32 7 -24 7 C-24 6.34 -24 5.68 -24 5 C-24.99 5.495 -24.99 5.495 -26 6 C-26.33 6.99 -26.66 7.98 -27 9 C-27.99 9 -28.98 9 -30 9 C-29.67 7.35 -29.34 5.7 -29 4 C-23.98065339 2.4424974 -19.15239296 1.48034438 -13.9375 0.875 C-13.25623047 0.78863281 -12.57496094 0.70226562 -11.87304688 0.61328125 C-7.89276462 0.13151798 -4.00766057 -0.08753081 0 0 Z M-12 3 C-12 3.66 -12 4.32 -12 5 C-11.34 5 -10.68 5 -10 5 C-10 4.34 -10 3.68 -10 3 C-10.66 3 -11.32 3 -12 3 Z " fill="#151A21" transform="translate(91,527)"/>
<path d="M0 0 C0.99 0 1.98 0 3 0 C3 1.98 3 3.96 3 6 C3.66 6 4.32 6 5 6 C5 6.66 5 7.32 5 8 C6.65 8.33 8.3 8.66 10 9 C10.33 13.29 10.66 17.58 11 22 C10.34 22 9.68 22 9 22 C9 21.01 9 20.02 9 19 C8.34 19 7.68 19 7 19 C7 17.35 7 15.7 7 14 C4.36 14 1.72 14 -1 14 C-0.855625 13.29875 -0.71125 12.5975 -0.5625 11.875 C-0.376875 10.92625 -0.19125 9.9775 0 9 C0.20625 7.96875 0.4125 6.9375 0.625 5.875 C1.22097708 2.93580872 1.22097708 2.93580872 0 0 Z " fill="#384E6F" transform="translate(193,385)"/>
<path d="M0 0 C0.99 0.66 1.98 1.32 3 2 C2.67 2.66 2.34 3.32 2 4 C-0.36328125 4.4921875 -0.36328125 4.4921875 -3.3125 4.875 C-7.92597768 5.60814955 -9.90361521 6.40819364 -13 10 C-15.25 9.75 -15.25 9.75 -17 9 C-16.34 8.01 -15.68 7.02 -15 6 C-18.3 6 -21.6 6 -25 6 C-24.34 4.68 -23.68 3.36 -23 2 C-22.11477661 2.01571045 -22.11477661 2.01571045 -21.21166992 2.03173828 C-18.53698996 2.07332044 -15.86237803 2.0993329 -13.1875 2.125 C-11.7943457 2.15013672 -11.7943457 2.15013672 -10.37304688 2.17578125 C-9.48037109 2.18222656 -8.58769531 2.18867187 -7.66796875 2.1953125 C-6.84578857 2.20578613 -6.0236084 2.21625977 -5.17651367 2.22705078 C-2.70578408 2.13996135 -2.70578408 2.13996135 0 0 Z " fill="#141822" transform="translate(67,540)"/>
<path d="M0 0 C1.2375 0.144375 2.475 0.28875 3.75 0.4375 C9.49002931 1.07833262 15.24293318 1.5421622 21 2 C21 3.98 21 5.96 21 8 C16.71 7.67 12.42 7.34 8 7 C8 7.66 8 8.32 8 9 C5.47524538 7.73762269 4.53394597 6.2095347 2.875 3.9375 C2.33617187 3.20402344 1.79734375 2.47054688 1.2421875 1.71484375 C0.83226562 1.14894531 0.42234375 0.58304687 0 0 Z " fill="#111C2C" transform="translate(619,422)"/>
<path d="M0 0 C5.61 0 11.22 0 17 0 C16.34 1.65 15.68 3.3 15 5 C14.64141484 6.32676508 14.2981424 7.65835921 14 9 C14 8.34 14 7.68 14 7 C9.71 7 5.42 7 1 7 C0.67 5.68 0.34 4.36 0 3 C2.64 3 5.28 3 8 3 C8 2.34 8 1.68 8 1 C5.36 1 2.72 1 0 1 C0 0.67 0 0.34 0 0 Z " fill="#040A17" transform="translate(432,433)"/>
<path d="M0 0 C1.53202706 0.25195908 3.05257128 0.57596777 4.5625 0.9375 C5.38878906 1.13214844 6.21507812 1.32679688 7.06640625 1.52734375 C8.02353516 1.76130859 8.02353516 1.76130859 9 2 C9 2.66 9 3.32 9 4 C6.03 3.67 3.06 3.34 0 3 C0 3.66 0 4.32 0 5 C0.66 5 1.32 5 2 5 C4.67927341 9.01891012 4.15601248 11.24161923 4 16 C4.99 16.33 5.98 16.66 7 17 C3.04 17.495 3.04 17.495 -1 18 C-1 17.34 -1 16.68 -1 16 C-1.66 16 -2.32 16 -3 16 C-3 14.68 -3 13.36 -3 12 C-2.34 12 -1.68 12 -1 12 C-1.01160156 11.21753906 -1.02320313 10.43507813 -1.03515625 9.62890625 C-1.04417969 8.61699219 -1.05320313 7.60507812 -1.0625 6.5625 C-1.07410156 5.55316406 -1.08570313 4.54382813 -1.09765625 3.50390625 C-1 1 -1 1 0 0 Z " fill="#081836" transform="translate(174,402)"/>
<path d="M0 0 C1.25127906 3.54667178 0.72285053 5.72253438 -0.4375 9.25 C-0.86869141 10.58804687 -0.86869141 10.58804687 -1.30859375 11.953125 C-1.53675781 12.62859375 -1.76492188 13.3040625 -2 14 C-2.33 14 -2.66 14 -3 14 C-3.125 7.25 -3.125 7.25 -2 5 C-13.55 5 -25.1 5 -37 5 C-32.78683237 2.89341618 -29.93519357 2.73778458 -25.390625 2.8046875 C-24.66381531 2.8075174 -23.93700562 2.81034729 -23.18817139 2.81326294 C-20.87527749 2.82442477 -18.56277612 2.84952149 -16.25 2.875 C-14.67839102 2.88503499 -13.10677596 2.89415994 -11.53515625 2.90234375 C-7.68995378 2.92435096 -3.84504336 2.95885285 0 3 C0 2.01 0 1.02 0 0 Z " fill="#08121F" transform="translate(438,476)"/>
<path d="M0 0 C0 0.66 0 1.32 0 2 C-2.97842032 3.48921016 -6.10204326 3.41424142 -9.375 3.625 C-10.04789063 3.6765625 -10.72078125 3.728125 -11.4140625 3.78125 C-14.86171163 4.01199817 -17.69351949 3.94945123 -21 3 C-23.24707241 2.7801777 -25.49771238 2.59516013 -27.75 2.4375 C-28.92046875 2.35371094 -30.0909375 2.26992188 -31.296875 2.18359375 C-32.18890625 2.12300781 -33.0809375 2.06242187 -34 2 C-34 1.67 -34 1.34 -34 1 C-22.53444965 -0.32851434 -11.50196118 -1.57911897 0 0 Z " fill="#1C2A38" transform="translate(242,437)"/>
<path d="M0 0 C1.16208984 0.07831055 1.16208984 0.07831055 2.34765625 0.15820312 C4.23224487 0.28616902 6.11620371 0.42335596 8 0.5625 C8 1.2225 8 1.8825 8 2.5625 C10.475 3.0575 10.475 3.0575 13 3.5625 C13 4.2225 13 4.8825 13 5.5625 C13.804375 5.85125 14.60875 6.14 15.4375 6.4375 C18 7.5625 18 7.5625 19 9.5625 C15.51329166 8.4530928 12.22515763 7.29912334 9 5.5625 C9 4.9025 9 4.2425 9 3.5625 C5.27084983 3.53337652 1.5417291 3.51565963 -2.1875 3.5 C-3.24259766 3.49162109 -4.29769531 3.48324219 -5.38476562 3.47460938 C-6.40634766 3.47138672 -7.42792969 3.46816406 -8.48046875 3.46484375 C-9.41785889 3.45960693 -10.35524902 3.45437012 -11.32104492 3.44897461 C-13.98049477 3.56167343 -16.40920573 3.96873351 -19 4.5625 C-18.5 2.625 -18.5 2.625 -17 0.5625 C-11.22699283 -0.51035974 -5.83203923 -0.43967713 0 0 Z " fill="#42506B" transform="translate(323,335.4375)"/>
<path d="M0 0 C-2.53267622 3.27137345 -3.77116054 3.9600439 -7.9375 4.6875 C-9.29124631 4.79699419 -10.64539614 4.90168198 -12 5 C-16.69633173 5.84293134 -21.34474042 6.95535569 -26 8 C-26 7.01 -26 6.02 -26 5 C-22.60956594 3.9606132 -19.21199194 2.94682907 -15.8125 1.9375 C-14.37293945 1.49567383 -14.37293945 1.49567383 -12.90429688 1.04492188 C-11.50727539 0.6340332 -11.50727539 0.6340332 -10.08203125 0.21484375 C-8.80162964 -0.17006226 -8.80162964 -0.17006226 -7.49536133 -0.56274414 C-4.70204515 -1.05220988 -2.72333951 -0.71868866 0 0 Z " fill="#0F1219" transform="translate(89,555)"/>
<path d="M0 0 C0.66 0 1.32 0 2 0 C3.01866229 1.65532623 4.01810813 3.32260138 5 5 C5.66 5.33 6.32 5.66 7 6 C7.50244141 7.74658203 7.50244141 7.74658203 7.8515625 10.0078125 C7.98046875 10.83023437 8.109375 11.65265625 8.2421875 12.5 C8.36851562 13.36625 8.49484375 14.2325 8.625 15.125 C8.7590625 15.96804688 8.893125 16.81109375 9.03125 17.6796875 C9.76644941 22.51099791 10.14562777 27.11485015 10 32 C9.01 32.495 9.01 32.495 8 33 C7.37939305 29.81938937 7.00121487 26.93561211 7.0625 23.6875 C6.98739168 19.25610922 6.08656231 15.27833908 5 11 C4.34 11 3.68 11 3 11 C2.49384702 9.73160474 1.99530901 8.46016898 1.5 7.1875 C1.2215625 6.47980469 0.943125 5.77210938 0.65625 5.04296875 C0 3 0 3 0 0 Z " fill="#081224" transform="translate(208,477)"/>
<path d="M0 0 C-0.33 1.98 -0.66 3.96 -1 6 C-1.66 5.34 -2.32 4.68 -3 4 C-3.99 4.33 -4.98 4.66 -6 5 C-7.6675718 4.67122474 -9.33405209 4.33690718 -11 4 C-13.61481958 3.93225856 -16.19979256 3.90499742 -18.8125 3.9375 C-19.50537109 3.94201172 -20.19824219 3.94652344 -20.91210938 3.95117188 C-22.60811068 3.96286844 -24.30406703 3.98080076 -26 4 C-23.36564601 1.36564601 -21.91968405 1.68257135 -18.25 1.5 C-14.72150131 1.27262658 -11.99507363 0.99835788 -8.625 -0.125 C-5.4038589 -1.1987137 -3.26282186 -0.77686235 0 0 Z " fill="#0A101C" transform="translate(102,458)"/>
<path d="M0 0 C6.73742646 -0.11044961 13.29980211 0.29867087 20 1 C20 1.66 20 2.32 20 3 C19.09636719 2.97679687 18.19273437 2.95359375 17.26171875 2.9296875 C16.08222656 2.91164063 14.90273437 2.89359375 13.6875 2.875 C12.51574219 2.85179687 11.34398437 2.82859375 10.13671875 2.8046875 C6.83606339 2.74679382 6.83606339 2.74679382 4 5 C0.86328125 5.4140625 0.86328125 5.4140625 -2.6875 5.625 C-3.86699219 5.69976562 -5.04648438 5.77453125 -6.26171875 5.8515625 C-7.61716797 5.92503906 -7.61716797 5.92503906 -9 6 C-9 5.34 -9 4.68 -9 4 C-8.43410156 3.87882812 -7.86820313 3.75765625 -7.28515625 3.6328125 C-6.18494141 3.38144531 -6.18494141 3.38144531 -5.0625 3.125 C-4.33160156 2.96257812 -3.60070312 2.80015625 -2.84765625 2.6328125 C-0.79299706 2.17038477 -0.79299706 2.17038477 0 0 Z " fill="#19202D" transform="translate(216,452)"/>
<path d="M0 0 C2.64 0 5.28 0 8 0 C8 4.62 8 9.24 8 14 C4 12 4 12 2.734375 9.1796875 C2.40953125 8.08914063 2.0846875 6.99859375 1.75 5.875 C1.41484375 4.77929688 1.0796875 3.68359375 0.734375 2.5546875 C0.49203125 1.71164062 0.2496875 0.86859375 0 0 Z " fill="#0F151D" transform="translate(632,444)"/>
<path d="M0 0 C0.33 0.66 0.66 1.32 1 2 C2.98 2 4.96 2 7 2 C7 2.66 7 3.32 7 4 C8.093125 3.95875 9.18625 3.9175 10.3125 3.875 C14 4 14 4 17 6 C16 7 16 7 12.125 7.125 C6.72069776 7.07278452 1.37183894 6.56228595 -4 6 C-4.33 5.01 -4.66 4.02 -5 3 C-3.68 3 -2.36 3 -1 3 C-0.67 2.01 -0.34 1.02 0 0 Z " fill="#122030" transform="translate(391,444)"/>
<path d="M0 0 C4.75 0.875 4.75 0.875 7 2 C8 3.9609375 8 3.9609375 9 6.375 C10.17597659 9.19550635 11.28919072 11.43378609 13 14 C13.265625 16.55859375 13.265625 16.55859375 13.25 19.4375 C13.25515625 20.38496094 13.2603125 21.33242188 13.265625 22.30859375 C13 25 13 25 11 29 C11 23.72 11 18.44 11 13 C10.34 13 9.68 13 9 13 C8.67 11.68 8.34 10.36 8 9 C7.34 9 6.68 9 6 9 C5.67 8.34 5.34 7.68 5 7 C4.01 6.34 3.02 5.68 2 5 C2.33 4.34 2.66 3.68 3 3 C2.01 2.67 1.02 2.34 0 2 C0 1.34 0 0.68 0 0 Z " fill="#111B29" transform="translate(335,343)"/>
<path d="M0 0 C0.33 0.99 0.66 1.98 1 3 C-0.62808594 3.18175781 -0.62808594 3.18175781 -2.2890625 3.3671875 C-3.73441404 3.53612469 -5.17972442 3.70541425 -6.625 3.875 C-7.33785156 3.95363281 -8.05070312 4.03226563 -8.78515625 4.11328125 C-12.13303077 4.51256904 -15.03550308 5.01194815 -18.25 6.09375 C-22.22178738 7.40263448 -24.92489512 6.70260429 -29 6 C-26.73537559 3.73537559 -26.00162426 3.63990238 -22.9375 3.18359375 C-21.74253906 2.99700195 -21.74253906 2.99700195 -20.5234375 2.80664062 C-19.69070312 2.68482422 -18.85796875 2.56300781 -18 2.4375 C-16.35373651 2.18903144 -14.70787872 1.93785535 -13.0625 1.68359375 C-12.33160156 1.57587646 -11.60070312 1.46815918 -10.84765625 1.35717773 C-3.49250318 -0.06467598 -3.49250318 -0.06467598 0 0 Z " fill="#12151C" transform="translate(44,548)"/>
<path d="M0 0 C0 0.66 0 1.32 0 2 C1.65 2 3.3 2 5 2 C1.90445205 5.40510274 -0.46905739 6.90814344 -5.125 7.1875 C-8 7 -8 7 -10 6 C-10.625 3.4375 -10.625 3.4375 -11 1 C-7.26513121 0.4254048 -3.78706732 0 0 0 Z " fill="#080D15" transform="translate(40,574)"/>
<path d="M0 0 C0.33 0 0.66 0 1 0 C1.66 10.56 2.32 21.12 3 32 C3.66 32 4.32 32 5 32 C6.26237731 34.52475462 6.09856404 36.31200466 6.0625 39.125 C6.05347656 40.03507813 6.04445312 40.94515625 6.03515625 41.8828125 C6.02355469 42.58148437 6.01195312 43.28015625 6 44 C2.64704083 38.97056124 1.50450381 34.95462574 0.875 28.9375 C0.74762451 27.76985107 0.74762451 27.76985107 0.61767578 26.57861328 C-0.25947754 17.72412994 -0.17733216 8.88631162 0 0 Z " fill="#040B16" transform="translate(180,512)"/>
<path d="M0 0 C1.18239258 0.00676758 1.18239258 0.00676758 2.38867188 0.01367188 C4.32164761 0.02538688 6.25458393 0.04332002 8.1875 0.0625 C8.1875 1.0525 8.1875 2.0425 8.1875 3.0625 C-4.1875 3.5575 -4.1875 3.5575 -16.8125 4.0625 C-11.89547041 -0.85452959 -6.5858144 -0.07176495 0 0 Z " fill="#1E2531" transform="translate(83.8125,500.9375)"/>
<path d="M0 0 C-1.32 0.99 -2.64 1.98 -4 3 C-4 2.34 -4 1.68 -4 1 C-7.47180433 2.9038927 -10.64396778 5.13609505 -13.8125 7.5 C-14.60269531 8.0878125 -15.39289063 8.675625 -16.20703125 9.28125 C-16.79871094 9.8484375 -17.39039063 10.415625 -18 11 C-18 11.99 -18 12.98 -18 14 C-18.99 14 -19.98 14 -21 14 C-21.66 14.99 -22.32 15.98 -23 17 C-22.58150577 12.11756726 -20.50793937 10.25737227 -17 7 C-16.443125 6.236875 -15.88625 5.47375 -15.3125 4.6875 C-14.6628125 3.8521875 -14.6628125 3.8521875 -14 3 C-13.34 3 -12.68 3 -12 3 C-12 2.34 -12 1.68 -12 1 C-10.37681021 0.63762737 -8.7513642 0.28534843 -7.125 -0.0625 C-6.22007812 -0.25972656 -5.31515625 -0.45695312 -4.3828125 -0.66015625 C-2 -1 -2 -1 0 0 Z " fill="#0E161F" transform="translate(518,319)"/>
<path d="M0 0 C1.53333984 0.01353516 1.53333984 0.01353516 3.09765625 0.02734375 C5.60701522 0.0507957 8.11588336 0.08361645 10.625 0.125 C10.625 0.785 10.625 1.445 10.625 2.125 C1.28513591 3.33014375 -7.97707216 3.21713655 -17.375 3.125 C-17.375 2.795 -17.375 2.465 -17.375 2.125 C-11.62047579 -0.36928183 -6.14438083 -0.10306703 0 0 Z " fill="#1B232D" transform="translate(87.375,466.875)"/>
<path d="M0 0 C0 1.32 0 2.64 0 4 C-8.58 4 -17.16 4 -26 4 C-25.67 3.34 -25.34 2.68 -25 2 C-22.47770957 1.51355827 -20.04678654 1.15309082 -17.5 0.875 C-16.77619141 0.79008301 -16.05238281 0.70516602 -15.30664062 0.61767578 C-10.17609505 0.04697722 -5.16421457 -0.18443623 0 0 Z " fill="#1F2731" transform="translate(94,479)"/>
<path d="M0 0 C0.33 0 0.66 0 1 0 C0.57664615 6.49142565 -1.91099799 11.33492989 -5 17 C-5.99 16.67 -6.98 16.34 -8 16 C-7.34 13.69 -6.68 11.38 -6 9 C-5.34 9 -4.68 9 -4 9 C-3.67 7.35 -3.34 5.7 -3 4 C-2.34 4 -1.68 4 -1 4 C-0.67 2.68 -0.34 1.36 0 0 Z M-9 17 C-8.67 17.99 -8.34 18.98 -8 20 C-11.22791555 22.1519437 -12.28400809 22.20086443 -16 22 C-13.66785852 20.79371992 -11.50357861 19.8345262 -9 19 C-9 18.34 -9 17.68 -9 17 Z " fill="#313E51" transform="translate(142,415)"/>
<path d="M0 0 C-0.33 0.66 -0.66 1.32 -1 2 C-2.32 2 -3.64 2 -5 2 C-5 2.66 -5 3.32 -5 4 C-9.875 3.125 -9.875 3.125 -11 2 C-18.29903391 4.16998236 -18.29903391 4.16998236 -23.625 9.25 C-24.07875 10.1575 -24.5325 11.065 -25 12 C-25.33 11.01 -25.66 10.02 -26 9 C-23.74144128 4.75693363 -20.79656572 2.31587951 -16.375 0.5625 C-10.98571003 -0.41260499 -5.45256221 -0.16357687 0 0 Z " fill="#214176" transform="translate(173,367)"/>
<path d="M0 0 C-0.33 1.32 -0.66 2.64 -1 4 C-0.34 4.33 0.32 4.66 1 5 C0.34 7.64 -0.32 10.28 -1 13 C-1.66 12.01 -2.32 11.02 -3 10 C-3.99 11.485 -3.99 11.485 -5 13 C-5.99 12.67 -6.98 12.34 -8 12 C-7.34 12 -6.68 12 -6 12 C-6.03480469 11.30132812 -6.06960937 10.60265625 -6.10546875 9.8828125 C-6.13253906 8.97273438 -6.15960938 8.06265625 -6.1875 7.125 C-6.22230469 6.22007812 -6.25710937 5.31515625 -6.29296875 4.3828125 C-6.19628906 3.59648437 -6.09960938 2.81015625 -6 2 C-3 0 -3 0 0 0 Z " fill="#1C365B" transform="translate(210,395)"/>
<path d="M0 0 C3.39946595 5.09919892 1.72164461 11.10767244 1 17 C0.48563468 19.45193695 -0.15642371 21.63798639 -1 24 C-7.875 20.25 -7.875 20.25 -9 18 C-8.236875 18.020625 -7.47375 18.04125 -6.6875 18.0625 C-3.89814214 18.12942841 -3.89814214 18.12942841 -1 17 C-0.97303635 15.20841511 -0.95362083 13.41671527 -0.9375 11.625 C-0.92589844 10.62726563 -0.91429687 9.62953125 -0.90234375 8.6015625 C-0.81993398 6.01567547 -0.81993398 6.01567547 -2 4 C-1.34 4 -0.68 4 0 4 C0 2.68 0 1.36 0 0 Z " fill="#0D1119" transform="translate(342,382)"/>
<path d="M0 0 C1.23556641 0.01740234 1.23556641 0.01740234 2.49609375 0.03515625 C3.32238281 0.04417969 4.14867187 0.05320312 5 0.0625 C5.63808594 0.07410156 6.27617188 0.08570313 6.93359375 0.09765625 C6.93359375 2.07765625 6.93359375 4.05765625 6.93359375 6.09765625 C3.96359375 6.09765625 0.99359375 6.09765625 -2.06640625 6.09765625 C-2.44859392 4.44150968 -2.78035727 2.77308601 -3.06640625 1.09765625 C-2.06640625 0.09765625 -2.06640625 0.09765625 0 0 Z " fill="#111926" transform="translate(633.06640625,437.90234375)"/>
<path d="M0 0 C1 2 1 2 0.44140625 4.1640625 C-0.37239583 6.44270833 -1.18619792 8.72135417 -2 11 C-5.63 10.67 -9.26 10.34 -13 10 C-11 6 -11 6 -9 5 C-6.3276379 4.86584528 -3.67749512 4.95681459 -1 5 C-0.67 3.35 -0.34 1.7 0 0 Z " fill="#141F32" transform="translate(451,421)"/>
<path d="M0 0 C0 0.33 0 0.66 0 1 C-11.35267742 1.79568202 -22.62018175 2.12818318 -34 2 C-27.52990455 -4.47009545 -8.65143148 -0.63757715 0 0 Z " fill="#1E252D" transform="translate(46,479)"/>
<path d="M0 0 C1.25425781 0.10183594 2.50851563 0.20367187 3.80078125 0.30859375 C5.22970703 0.43427734 5.22970703 0.43427734 6.6875 0.5625 C6.0275 1.8825 5.3675 3.2025 4.6875 4.5625 C4.6875 3.9025 4.6875 3.2425 4.6875 2.5625 C-2.5725 2.5625 -9.8325 2.5625 -17.3125 2.5625 C-17.6425 3.2225 -17.9725 3.8825 -18.3125 4.5625 C-18.6425 3.5725 -18.9725 2.5825 -19.3125 1.5625 C-17.7346875 1.3459375 -17.7346875 1.3459375 -16.125 1.125 C-12.54871519 0.65911097 -12.54871519 0.65911097 -10.03125 0 C-6.58979879 -0.55379675 -3.46984784 -0.29185636 0 0 Z " fill="#070C16" transform="translate(228.3125,458.4375)"/>
<path d="M0 0 C0.99 0.33 1.98 0.66 3 1 C3 1.66 3 2.32 3 3 C3.928125 3.37125 3.928125 3.37125 4.875 3.75 C7.35068687 5.20628639 7.95125002 6.37812506 9 9 C8.21625 9.28875 7.4325 9.5775 6.625 9.875 C3.90328368 10.84912254 3.90328368 10.84912254 2 13 C1.34 11.02 0.68 9.04 0 7 C2.475 7.99 2.475 7.99 5 9 C5 8.34 5 7.68 5 7 C4.360625 6.896875 3.72125 6.79375 3.0625 6.6875 C2.381875 6.460625 1.70125 6.23375 1 6 C0 3 0 3 0 0 Z " fill="#26344B" transform="translate(350,413)"/>
<path d="M0 0 C2.9719385 1.12451727 5.33440687 2.22293791 8 4 C8.33 3.01 8.66 2.02 9 1 C11.62386487 4.06117568 12 4.73173127 12 9 C10.02 9.33 8.04 9.66 6 10 C6 8.35 6 6.7 6 5 C5.38125 4.9175 4.7625 4.835 4.125 4.75 C2 4 2 4 0.75 1.9375 C0.5025 1.298125 0.255 0.65875 0 0 Z " fill="#4D6793" transform="translate(190,380)"/>
<path d="M0 0 C1.32 0 2.64 0 4 0 C3.74551193 2.46104938 3.47227281 4.91743305 3.1875 7.375 C3.11724609 8.07367188 3.04699219 8.77234375 2.97460938 9.4921875 C2.75211708 11.34332338 2.38337478 13.17538205 2 15 C1.01 15.66 0.02 16.32 -1 17 C-1.02684679 14.35409986 -1.04676357 11.70846904 -1.0625 9.0625 C-1.07087891 8.30775391 -1.07925781 7.55300781 -1.08789062 6.77539062 C-1.09652441 4.85005687 -1.05224333 2.92464419 -1 1 C-0.67 0.67 -0.34 0.34 0 0 Z " fill="#35455F" transform="translate(259,410)"/>
<path d="M0 0 C0.78375 0.04125 1.5675 0.0825 2.375 0.125 C2.1875 2.9375 2.1875 2.9375 1.375 6.125 C-1.03303271 7.97733285 -2.55241925 9.125 -5.625 9.125 C-4.6356383 0.22074468 -4.6356383 0.22074468 0 0 Z " fill="#061B40" transform="translate(150.625,379.875)"/>
<path d="M0 0 C0.33 0.66 0.66 1.32 1 2 C0.34 2.66 -0.32 3.32 -1 4 C-1 3.34 -1 2.68 -1 2 C-1.99 2.33 -2.98 2.66 -4 3 C-6.12029472 3.25175003 -8.24662748 3.45453538 -10.375 3.625 C-12.05722656 3.76808594 -12.05722656 3.76808594 -13.7734375 3.9140625 C-16.732279 3.99286942 -19.14251183 3.71704759 -22 3 C-21.67 2.34 -21.34 1.68 -21 1 C-18.38836681 0.68398046 -15.87155881 0.48577009 -13.25 0.375 C-12.53328125 0.33632813 -11.8165625 0.29765625 -11.078125 0.2578125 C-7.38312402 0.06762863 -3.69965924 -0.04369676 0 0 Z " fill="#111A27" transform="translate(213,441)"/>
<path d="M0 0 C0.99 0.33 1.98 0.66 3 1 C2.67 1.33 2.34 1.66 2 2 C1.77097235 3.99581241 1.54255296 5.99170167 1.3203125 7.98828125 C0.95553678 10.27925072 0.22822769 12.03483569 -1 14 C-1.66 14 -2.32 14 -3 14 C-3 10.04 -3 6.08 -3 2 C-2.01 2 -1.02 2 0 2 C0 1.34 0 0.68 0 0 Z " fill="#13171A" transform="translate(222,485)"/>
<path d="M0 0 C2.70108504 0.090916 5.36930311 0.23740766 8.0625 0.4375 C9.20041992 0.51581055 9.20041992 0.51581055 10.36132812 0.59570312 C12.24121722 0.72575835 14.12065685 0.86228038 16 1 C15.67 1.66 15.34 2.32 15 3 C6.42 3 -2.16 3 -11 3 C-11 2.67 -11 2.34 -11 2 C-10.28972656 1.93941406 -9.57945313 1.87882812 -8.84765625 1.81640625 C-7.46900391 1.69072266 -7.46900391 1.69072266 -6.0625 1.5625 C-5.14597656 1.48128906 -4.22945312 1.40007812 -3.28515625 1.31640625 C-1.03840268 1.23955024 -1.03840268 1.23955024 0 0 Z " fill="#020911" transform="translate(66,470)"/>
<path d="M0 0 C5.61 0 11.22 0 17 0 C16.67 0.66 16.34 1.32 16 2 C15.34 2 14.68 2 14 2 C14 2.66 14 3.32 14 4 C9.38 4 4.76 4 0 4 C0 3.67 0 3.34 0 3 C2.64 3 5.28 3 8 3 C8 2.34 8 1.68 8 1 C5.36 1 2.72 1 0 1 C0 0.67 0 0.34 0 0 Z " fill="#0D1623" transform="translate(432,433)"/>
<path d="M0 0 C0.69738281 0.01353516 1.39476562 0.02707031 2.11328125 0.04101562 C3.82585541 0.0762055 5.53802941 0.13000845 7.25 0.1875 C7.25 1.8375 7.25 3.4875 7.25 5.1875 C6.26 4.5275 5.27 3.8675 4.25 3.1875 C1.48344676 3.04504103 -1.17653306 2.99980555 -3.9375 3.0625 C-5.06188477 3.07603516 -5.06188477 3.07603516 -6.20898438 3.08984375 C-8.05612654 3.11337422 -9.90310412 3.14924439 -11.75 3.1875 C-8.17517469 -0.32283104 -4.73451742 -0.1745238 0 0 Z " fill="#1B2639" transform="translate(437.75,440.8125)"/>
<path d="M0 0 C1.546875 -0.00773437 1.546875 -0.00773437 3.125 -0.015625 C5.94597278 0.24500835 7.60145718 0.79703656 10 2.25 C9 3.25 9 3.25 6.5234375 3.3828125 C0.91050326 3.36888462 -4.47286726 3.25493322 -10 2.25 C-6.6042877 0.19298197 -3.9382341 -0.01969117 0 0 Z " fill="#1B232E" transform="translate(103,445.75)"/>
<path d="M0 0 C0.66 0 1.32 0 2 0 C2.268125 0.804375 2.53625 1.60875 2.8125 2.4375 C3.204375 3.283125 3.59625 4.12875 4 5 C4.99 5.33 5.98 5.66 7 6 C7 6.66 7 7.32 7 8 C5.68 7.67 4.36 7.34 3 7 C4.09786425 12.40787385 4.09786425 12.40787385 8 16 C6.35 15.67 4.7 15.34 3 15 C2.87625 14.195625 2.7525 13.39125 2.625 12.5625 C2.315625 11.2940625 2.315625 11.2940625 2 10 C1.34 9.67 0.68 9.34 0 9 C-0.85056945 5.44307323 -1.16909807 3.50729422 0 0 Z " fill="#0F1828" transform="translate(348,414)"/>
<path d="M0 0 C2.31 0.66 4.62 1.32 7 2 C7 3.32 7 4.64 7 6 C7.66 6 8.32 6 9 6 C10.33333333 7.33333333 11.66666667 8.66666667 13 10 C11.68 11.65 10.36 13.3 9 15 C8.32645501 13.56570999 7.66140299 12.12742943 7 10.6875 C6.62875 9.88699219 6.2575 9.08648437 5.875 8.26171875 C5 6 5 6 5 3 C3.35 2.67 1.7 2.34 0 2 C0 1.34 0 0.68 0 0 Z " fill="#0B111D" transform="translate(498,369)"/>
<path d="M0 0 C0.66 0 1.32 0 2 0 C2.08564209 0.59538574 2.17128418 1.19077148 2.25952148 1.80419922 C2.64861253 4.49499629 3.04299001 7.18499232 3.4375 9.875 C3.57220703 10.81214844 3.70691406 11.74929688 3.84570312 12.71484375 C3.97783203 13.61074219 4.10996094 14.50664062 4.24609375 15.4296875 C4.36654053 16.25710449 4.4869873 17.08452148 4.61108398 17.93701172 C4.91256672 20.05327767 4.91256672 20.05327767 6 22 C6.13415472 24.6723621 6.04318541 27.32250488 6 30 C3.60926555 26.17482487 3.44033448 22.40334476 3 18 C2.34 18 1.68 18 1 18 C1.01740234 16.67935547 1.01740234 16.67935547 1.03515625 15.33203125 C1.04417969 14.17058594 1.05320312 13.00914062 1.0625 11.8125 C1.07410156 10.66394531 1.08570313 9.51539063 1.09765625 8.33203125 C1.01192832 5.40699414 0.67849023 2.83683709 0 0 Z " fill="#0B1322" transform="translate(560,335)"/>
<path d="M0 0 C3.6875 0.875 3.6875 0.875 7 2 C7 1.34 7 0.68 7 0 C8.98 0 10.96 0 13 0 C13.33 0.66 13.66 1.32 14 2 C7.91708727 4.1663492 3.3552245 5.5197276 -3 4 C-3 3.34 -3 2.68 -3 2 C-2.01 1.34 -1.02 0.68 0 0 Z " fill="#2E4057" transform="translate(513,313)"/>
<path d="M0 0 C0 0.66 0 1.32 0 2 C0.99 2 1.98 2 3 2 C3 2.66 3 3.32 3 4 C0.03 4.66 -2.94 5.32 -6 6 C-6.66 4.35 -7.32 2.7 -8 1 C-5.10765685 0.17361624 -3.11257569 0 0 0 Z " fill="#0B0E12" transform="translate(628,614)"/>
<path d="M0 0 C6.27 0 12.54 0 19 0 C19 0.33 19 0.66 19 1 C16.66836622 1.67258667 14.3347961 2.33847444 12 3 C11.360625 3.1959375 10.72125 3.391875 10.0625 3.59375 C7.64114384 4.07068379 5.69152718 3.8856433 3.25 3.5625 C2.05117188 3.40974609 2.05117188 3.40974609 0.828125 3.25390625 C0.22484375 3.17011719 -0.3784375 3.08632813 -1 3 C-0.67 2.01 -0.34 1.02 0 0 Z " fill="#162337" transform="translate(46,439)"/>
<path d="M0 0 C2.86976712 4.30465068 1.56456483 7.12733124 0.6484375 12.03515625 C-0.02551946 15.11668235 -0.85609279 18.05852433 -2 21 C-2.33 21 -2.66 21 -3 21 C-2.22095672 6.21867882 -2.22095672 6.21867882 0 0 Z " fill="#39475F" transform="translate(345,383)"/>
<path d="M0 0 C1.65 0.33 3.3 0.66 5 1 C5.33 1.99 5.66 2.98 6 4 C7.32 4 8.64 4 10 4 C9.67 4.99 9.34 5.98 9 7 C8.67 6.67 8.34 6.34 8 6 C7.67 6.66 7.34 7.32 7 8 C6.443125 7.690625 5.88625 7.38125 5.3125 7.0625 C2.87459567 5.94238179 0.63775814 5.43962636 -2 5 C-2 4.34 -2 3.68 -2 3 C-1.34 2.67 -0.68 2.34 0 2 C0 1.34 0 0.68 0 0 Z " fill="#2D4A7A" transform="translate(191,376)"/>
<path d="M0 0 C1.87365234 0.00966797 1.87365234 0.00966797 3.78515625 0.01953125 C6.9375 0.1875 6.9375 0.1875 8.9375 1.1875 C8.6075 1.8475 8.2775 2.5075 7.9375 3.1875 C7.4425 3.001875 6.9475 2.81625 6.4375 2.625 C1.09041271 1.68925972 -4.75958479 3.25948984 -10.0625 4.1875 C-10.0625 3.5275 -10.0625 2.8675 -10.0625 2.1875 C-6.36008718 -0.28077522 -4.4033889 -0.05009026 0 0 Z " fill="#0C141E" transform="translate(532.0625,315.8125)"/>
<path d="M0 0 C2.97 0 5.94 0 9 0 C8.67 1.32 8.34 2.64 8 4 C4.37 4 0.74 4 -3 4 C-3 3.34 -3 2.68 -3 2 C-2.01 2 -1.02 2 0 2 C0 1.34 0 0.68 0 0 Z " fill="#080F17" transform="translate(15,577)"/>
<path d="M0 0 C0.99 0.495 0.99 0.495 2 1 C2 1.99 2 2.98 2 4 C3.093125 3.95875 4.18625 3.9175 5.3125 3.875 C9 4 9 4 12 6 C9.36 6 6.72 6 4 6 C4 6.66 4 7.32 4 8 C7.63 8 11.26 8 15 8 C15 8.33 15 8.66 15 9 C11.04 9 7.08 9 3 9 C2.01 6.03 1.02 3.06 0 0 Z " fill="#111824" transform="translate(398,485)"/>
<path d="M0 0 C0 0.33 0 0.66 0 1 C3.63 1.33 7.26 1.66 11 2 C10.67 2.66 10.34 3.32 10 4 C7.22829605 3.88613541 4.45821954 3.75939222 1.6875 3.625 C0.90181641 3.5940625 0.11613281 3.563125 -0.69335938 3.53125 C-1.45068359 3.49257813 -2.20800781 3.45390625 -2.98828125 3.4140625 C-3.68477783 3.3826416 -4.38127441 3.3512207 -5.09887695 3.31884766 C-7 3 -7 3 -10 1 C-6.61981469 -0.04005702 -3.5219721 -0.08004482 0 0 Z " fill="#101821" transform="translate(42,476)"/>
<path d="M0 0 C10.89 0 21.78 0 33 0 C32.34 0.99 31.68 1.98 31 3 C30.34 3 29.68 3 29 3 C29 2.34 29 1.68 29 1 C19.43 1 9.86 1 0 1 C0 0.67 0 0.34 0 0 Z " fill="#172236" transform="translate(5,440)"/>
<path d="M0 0 C1.32 0.33 2.64 0.66 4 1 C4 1.66 4 2.32 4 3 C11.59 3 19.18 3 27 3 C27 3.33 27 3.66 27 4 C18.09 4 9.18 4 0 4 C0 2.68 0 1.36 0 0 Z " fill="#111926" transform="translate(192,436)"/>
<path d="M0 0 C0.99 0 1.98 0 3 0 C2.67 0.99 2.34 1.98 2 3 C1.85110253 4.84466442 1.7520899 6.69357275 1.68359375 8.54296875 C1.64169922 9.61611328 1.59980469 10.68925781 1.55664062 11.79492188 C1.51732422 12.91447266 1.47800781 14.03402344 1.4375 15.1875 C1.39431641 16.31865234 1.35113281 17.44980469 1.30664062 18.61523438 C1.20050901 21.41003354 1.09845615 24.20492162 1 27 C0.67 27 0.34 27 0 27 C-0.19766544 23.43798805 -0.38133629 19.87538633 -0.5625 16.3125 C-0.61857422 15.30509766 -0.67464844 14.29769531 -0.73242188 13.25976562 C-0.78076172 12.28330078 -0.82910156 11.30683594 -0.87890625 10.30078125 C-0.9260376 9.40528564 -0.97316895 8.50979004 -1.02172852 7.5871582 C-0.99942695 4.93176823 -0.60392668 2.58041401 0 0 Z " fill="#3E4A64" transform="translate(288,352)"/>
<path d="M0 0 C2.0625 1.75 2.0625 1.75 4 4 C4.10654689 7.30295369 2.70826336 8.31308322 0.4375 10.75 C-0.7690625 11.86375 -0.7690625 11.86375 -2 13 C-1.125 5.125 -1.125 5.125 0 4 C0 2.68 0 1.36 0 0 Z " fill="#2C394D" transform="translate(503,377)"/>
<path d="M0 0 C0 2.31 0 4.62 0 7 C-0.33 5.68 -0.66 4.36 -1 3 C-2.98567708 3.29296875 -4.97135417 3.5859375 -6.95703125 3.87890625 C-9 4 -9 4 -12 3 C-12 2.34 -12 1.68 -12 1 C-7.95858806 0.36605303 -4.0934693 -0.12404452 0 0 Z " fill="#1A1F28" transform="translate(433,494)"/>
<path d="M0 0 C5.61 0.33 11.22 0.66 17 1 C17 1.66 17 2.32 17 3 C11.555 3.495 11.555 3.495 6 4 C6 3.34 6 2.68 6 2 C4.02 2 2.04 2 0 2 C0 1.34 0 0.68 0 0 Z " fill="#202B37" transform="translate(389,454)"/>
<path d="M0 0 C0.99 0 1.98 0 3 0 C3 1.32 3 2.64 3 4 C2.01 4.33 1.02 4.66 0 5 C0.33 7.64 0.66 10.28 1 13 C-1 10 -1 10 -2 7.875 C-2.85860158 5.82955462 -2.85860158 5.82955462 -5 5 C-4.67 4.01 -4.34 3.02 -4 2 C-2.02 2.495 -2.02 2.495 0 3 C0 2.01 0 1.02 0 0 Z " fill="#101720" transform="translate(387,443)"/>
<path d="M0 0 C0 0.66 0 1.32 0 2 C-1.44632812 2.39832031 -1.44632812 2.39832031 -2.921875 2.8046875 C-4.18515625 3.15789062 -5.4484375 3.51109375 -6.75 3.875 C-8.00296875 4.22304688 -9.2559375 4.57109375 -10.546875 4.9296875 C-13.24953641 5.76739025 -15.5469357 6.62479728 -18 8 C-18 7.01 -18 6.02 -18 5 C-12.36191389 1.81954117 -6.48871485 0 0 0 Z " fill="#3C4961" transform="translate(282,398)"/>
<path d="M0 0 C0 0.66 0 1.32 0 2 C-1.609375 3.5859375 -1.609375 3.5859375 -3.75 5.375 C-6.6243732 7.81617866 -9.38543992 10.27649992 -12 13 C-11.49168979 9.23850448 -10.88723092 7.459493 -8 5 C-6.9790625 3.948125 -6.9790625 3.948125 -5.9375 2.875 C-3.85708312 0.86169335 -2.90513242 0 0 0 Z " fill="#424F69" transform="translate(303,339)"/>
<path d="M0 0 C2.97 0.33 5.94 0.66 9 1 C9 1.33 9 1.66 9 2 C11.64 2.33 14.28 2.66 17 3 C17 3.33 17 3.66 17 4 C12.38 4 7.76 4 3 4 C2.67 4.99 2.34 5.98 2 7 C1.34 4.69 0.68 2.38 0 0 Z " fill="#161F2F" transform="translate(396,478)"/>
<path d="M0 0 C0.99 0 1.98 0 3 0 C3.66 0.66 4.32 1.32 5 2 C5.66 1.34 6.32 0.68 7 0 C7 1.32 7 2.64 7 4 C7.99 4.33 8.98 4.66 10 5 C7.36 5.33 4.72 5.66 2 6 C2 5.34 2 4.68 2 4 C1.34 4 0.68 4 0 4 C0 2.68 0 1.36 0 0 Z " fill="#111F3A" transform="translate(171,414)"/>
<path d="M0 0 C-0.99 1.485 -0.99 1.485 -2 3 C-4.1640625 3.29296875 -4.1640625 3.29296875 -6.625 3.1875 C-7.44226563 3.16042969 -8.25953125 3.13335938 -9.1015625 3.10546875 C-10.04128906 3.05326172 -10.04128906 3.05326172 -11 3 C-11 2.34 -11 1.68 -11 1 C-6.87831311 -0.62950412 -4.29299643 -1.26264601 0 0 Z " fill="#141922" transform="translate(89,555)"/>
<path d="M0 0 C0.66 0 1.32 0 2 0 C2 0.66 2 1.32 2 2 C4.31 2.66 6.62 3.32 9 4 C8.01 4.33 7.02 4.66 6 5 C3.00137745 6.12448346 0.68708328 7.20861115 -2 9 C-2 7.68 -2 6.36 -2 5 C-1.34 5 -0.68 5 0 5 C0 3.35 0 1.7 0 0 Z " fill="#082143" transform="translate(143,395)"/>
<path d="M0 0 C4.29 0 8.58 0 13 0 C13 0.33 13 0.66 13 1 C11.906875 1.103125 10.81375 1.20625 9.6875 1.3125 C5.951119 2.00911341 5.33322353 2.31679294 3 5 C2.01 5 1.02 5 0 5 C0 3.35 0 1.7 0 0 Z " fill="#0F161F" transform="translate(0,477)"/>
<path d="M0 0 C0 0.99 0 1.98 0 3 C-1.609375 4.3515625 -1.609375 4.3515625 -3.75 5.625 C-4.44609375 6.05039062 -5.1421875 6.47578125 -5.859375 6.9140625 C-9.94372559 8.98605057 -12.56087911 9.10978022 -17 8 C-17 7.67 -17 7.34 -17 7 C-16.30132812 6.97421875 -15.60265625 6.9484375 -14.8828125 6.921875 C-13.97273437 6.86515625 -13.06265625 6.8084375 -12.125 6.75 C-11.22007812 6.70359375 -10.31515625 6.6571875 -9.3828125 6.609375 C-8.59648437 6.40828125 -7.81015625 6.2071875 -7 6 C-5.80407589 4.06656494 -5.80407589 4.06656494 -5 2 C-2.375 0.75 -2.375 0.75 0 0 Z " fill="#0C1722" transform="translate(257,432)"/>
<path d="M0 0 C0.99 0.33 1.98 0.66 3 1 C2.21625 1.61875 1.4325 2.2375 0.625 2.875 C-1.96837647 4.89858661 -1.96837647 4.89858661 -4 7 C-6 8 -6 8 -8 9 C-9.35113205 9.97581759 -10.68946944 10.97029741 -12 12 C-10.64195446 8.8785222 -9.18624145 7.03041771 -6.5625 4.875 C-5.96566406 4.37742187 -5.36882812 3.87984375 -4.75390625 3.3671875 C-3.22237694 2.17334505 -1.6157298 1.0771532 0 0 Z " fill="#060B17" transform="translate(464,409)"/>
<path d="M0 0 C0.99 0.33 1.98 0.66 3 1 C2.67 4.96 2.34 8.92 2 13 C2.66 13.33 3.32 13.66 4 14 C2.68 13.67 1.36 13.34 0 13 C-0.19658808 11.58456585 -0.38187546 10.16755969 -0.5625 8.75 C-0.66691406 7.96109375 -0.77132813 7.1721875 -0.87890625 6.359375 C-1.00027349 3.99467126 -0.69633257 2.2488963 0 0 Z " fill="#080911" transform="translate(289,379)"/>
<path d="M0 0 C1.65 0 3.3 0 5 0 C5 0.66 5 1.32 5 2 C6.0725 1.95875 7.145 1.9175 8.25 1.875 C11.65747485 1.9885825 13.20739631 2.21273364 16 4 C15.01 4.33 14.02 4.66 13 5 C12.34 4.67 11.68 4.34 11 4 C10.67 4.66 10.34 5.32 10 6 C9.34 5.67 8.68 5.34 8 5 C8 4.34 8 3.68 8 3 C6.35 3 4.7 3 3 3 C3 2.34 3 1.68 3 1 C2.01 0.67 1.02 0.34 0 0 Z " fill="#0B141D" transform="translate(369,434)"/>
<path d="M0 0 C0.33 0.66 0.66 1.32 1 2 C-0.24215998 5.13808836 -1.19282996 7.40113191 -3.9375 9.4375 C-6.34445404 10.09394201 -7.67454648 9.83051911 -10 9 C-9.05125 8.4225 -8.1025 7.845 -7.125 7.25 C-4.15005989 5.10804312 -3.33533355 4.22705608 -2 1 C-1.34 0.67 -0.68 0.34 0 0 Z " fill="#2D3A4D" transform="translate(499,391)"/>
<path d="M0 0 C0.33 0.66 0.66 1.32 1 2 C-5.435 2.495 -5.435 2.495 -12 3 C-11 1 -11 1 -8.25 -0.1875 C-4.93922472 -1.01519382 -3.19859008 -1.09665946 0 0 Z " fill="#1F2D3D" transform="translate(437,431)"/>
<path d="M0 0 C0.33 0 0.66 0 1 0 C0.67 5.61 0.34 11.22 0 17 C-0.33 17 -0.66 17 -1 17 C-1.36368892 15.39796533 -1.71561952 13.79325797 -2.0625 12.1875 C-2.25972656 11.29417969 -2.45695312 10.40085937 -2.66015625 9.48046875 C-3 7 -3 7 -2 4 C-1.34 4 -0.68 4 0 4 C0 2.68 0 1.36 0 0 Z " fill="#343F56" transform="translate(493,348)"/>
<path d="M0 0 C0.66 0 1.32 0 2 0 C2 1.65 2 3.3 2 5 C1.34 5 0.68 5 0 5 C-0.66 7.31 -1.32 9.62 -2 12 C-2.99 11.34 -3.98 10.68 -5 10 C-3.35 6.7 -1.7 3.4 0 0 Z " fill="#33445B" transform="translate(497,324)"/>
<path d="M0 0 C-0.66 1.32 -1.32 2.64 -2 4 C-4.97 4 -7.94 4 -11 4 C-10.34 3.67 -9.68 3.34 -9 3 C-9 2.34 -9 1.68 -9 1 C-2.25 0 -2.25 0 0 0 Z " fill="#0A0F19" transform="translate(90,529)"/>
<path d="M0 0 C1.28132813 0.10183594 2.56265625 0.20367187 3.8828125 0.30859375 C4.87023437 0.39238281 5.85765625 0.47617187 6.875 0.5625 C6.875 0.8925 6.875 1.2225 6.875 1.5625 C1.49009359 2.47907981 -3.66730189 2.67388159 -9.125 2.5625 C-9.125 1.9025 -9.125 1.2425 -9.125 0.5625 C-6.07230154 -0.96384923 -3.36654311 -0.27544444 0 0 Z " fill="#152030" transform="translate(409.125,443.4375)"/>
<path d="M0 0 C0.66 0.33 1.32 0.66 2 1 C1.2575 2.11375 1.2575 2.11375 0.5 3.25 C-1.31923475 6.06318188 -1.31923475 6.06318188 -1 10 C-2.32 10 -3.64 10 -5 10 C-4.49701212 5.59885603 -2.91227269 3.28804981 0 0 Z " fill="#2B3E5A" transform="translate(199,424)"/>
<path d="M0 0 C1.051875 0.350625 2.10375 0.70125 3.1875 1.0625 C5.93815232 1.23107483 5.93815232 1.23107483 8.1875 1.0625 C8.1875 2.0525 8.1875 3.0425 8.1875 4.0625 C6.58232903 3.97516424 4.97828338 3.86697776 3.375 3.75 C2.03501953 3.66298828 2.03501953 3.66298828 0.66796875 3.57421875 C-2.11854 2.99936419 -3.05385754 2.2418144 -4.8125 0.0625 C-2.8125 -0.9375 -2.8125 -0.9375 0 0 Z " fill="#050B18" transform="translate(164.8125,416.9375)"/>
<path d="M0 0 C0.99 0.33 1.98 0.66 3 1 C2.125 5.75 2.125 5.75 1 8 C-0.65 8 -2.3 8 -4 8 C-3.34 7.01 -2.68 6.02 -2 5 C-1.34 5 -0.68 5 0 5 C-0.33 4.01 -0.66 3.02 -1 2 C-0.67 1.34 -0.34 0.68 0 0 Z " fill="#3A475E" transform="translate(287,391)"/>
<path d="M0 0 C1.41623216 -0.05447047 2.83308191 -0.09300508 4.25 -0.125 C5.03890625 -0.14820313 5.8278125 -0.17140625 6.640625 -0.1953125 C9.20731941 0.0171622 10.7916067 0.71345895 13 2 C10.69 2.66 8.38 3.32 6 4 C6 3.34 6 2.68 6 2 C4.35 2 2.7 2 1 2 C0.67 1.34 0.34 0.68 0 0 Z " fill="#060910" transform="translate(34,551)"/>
<path d="M0 0 C0.66 0 1.32 0 2 0 C2 1.32 2 2.64 2 4 C-2.62 4 -7.24 4 -12 4 C-12 3.67 -12 3.34 -12 3 C-10.82630859 2.80083984 -10.82630859 2.80083984 -9.62890625 2.59765625 C-8.61699219 2.42105469 -7.60507813 2.24445313 -6.5625 2.0625 C-5.55316406 1.88847656 -4.54382813 1.71445312 -3.50390625 1.53515625 C-1.0712562 1.25248903 -1.0712562 1.25248903 0 0 Z " fill="#131B20" transform="translate(92,483)"/>
<path d="M0 0 C0.598125 0.639375 1.19625 1.27875 1.8125 1.9375 C3.90810337 4.20310389 3.90810337 4.20310389 7 5 C7 6.32 7 7.64 7 9 C5.1875 8.875 5.1875 8.875 3 8 C0 2.96428571 0 2.96428571 0 0 Z " fill="#121928" transform="translate(612,413)"/>
<path d="M0 0 C2.31 0 4.62 0 7 0 C8.32 2.31 9.64 4.62 11 7 C10.01 7.495 10.01 7.495 9 8 C8.2575 7.236875 7.515 6.47375 6.75 5.6875 C4.5736677 3.5606298 2.47832204 1.7440044 0 0 Z " fill="#131A27" transform="translate(601,406)"/>
<path d="M0 0 C1.875 0.625 1.875 0.625 4 2 C5.25 5.125 5.25 5.125 6 8 C5.01 8 4.02 8 3 8 C2.67 8.99 2.34 9.98 2 11 C1.855625 9.9275 1.71125 8.855 1.5625 7.75 C1.16250558 5.08337051 0.72408076 2.58600271 0 0 Z " fill="#1B3969" transform="translate(188,380)"/>
<path d="M0 0 C-1.32 0.99 -2.64 1.98 -4 3 C-4 2.34 -4 1.68 -4 1 C-5.36125 1.7734375 -5.36125 1.7734375 -6.75 2.5625 C-10 4 -10 4 -12.375 3.6875 C-12.91125 3.460625 -13.4475 3.23375 -14 3 C-13.34 3 -12.68 3 -12 3 C-12 2.34 -12 1.68 -12 1 C-10.37681021 0.63762737 -8.7513642 0.28534843 -7.125 -0.0625 C-6.22007812 -0.25972656 -5.31515625 -0.45695312 -4.3828125 -0.66015625 C-2 -1 -2 -1 0 0 Z " fill="#1D222F" transform="translate(518,319)"/>
<path d="M0 0 C1.32 0.33 2.64 0.66 4 1 C3.67 2.98 3.34 4.96 3 7 C2.01 7 1.02 7 0 7 C0 4.69 0 2.38 0 0 Z " fill="#02122E" transform="translate(174,409)"/>
<path d="M0 0 C2.55694972 3.83542457 2.04045639 5.65902533 1.625 10.1875 C1.51414062 11.45980469 1.40328125 12.73210937 1.2890625 14.04296875 C1.19367188 15.01878906 1.09828125 15.99460937 1 17 C0.67 17 0.34 17 0 17 C-0.06058594 16.22914063 -0.12117188 15.45828125 -0.18359375 14.6640625 C-0.26738281 13.66117187 -0.35117187 12.65828125 -0.4375 11.625 C-0.51871094 10.62726563 -0.59992188 9.62953125 -0.68359375 8.6015625 C-0.84965626 6.02072387 -0.84965626 6.02072387 -2 4 C-1.34 4 -0.68 4 0 4 C0 2.68 0 1.36 0 0 Z " fill="#131721" transform="translate(342,382)"/>
<path d="M0 0 C0.99 0.33 1.98 0.66 3 1 C3 1.66 3 2.32 3 3 C3.66 3.33 4.32 3.66 5 4 C2.03 6.475 2.03 6.475 -1 9 C-0.67 6.03 -0.34 3.06 0 0 Z " fill="#3A4D6B" transform="translate(347,371)"/>
<path d="M0 0 C2.97 0 5.94 0 9 0 C9 0.66 9 1.32 9 2 C6.04335481 3.4783226 3.25770263 3.06032783 0 3 C0 2.01 0 1.02 0 0 Z " fill="#282E39" transform="translate(218,478)"/>
<path d="M0 0 C0 0.99 0 1.98 0 3 C-0.77085937 3.06058594 -1.54171875 3.12117188 -2.3359375 3.18359375 C-3.33882812 3.26738281 -4.34171875 3.35117187 -5.375 3.4375 C-6.87160156 3.55931641 -6.87160156 3.55931641 -8.3984375 3.68359375 C-10.97927613 3.84965626 -10.97927613 3.84965626 -13 5 C-13.66 4.34 -14.32 3.68 -15 3 C-13.35696827 1.35696827 -11.31992705 1.68137147 -9.0625 1.5 C-5.90210889 1.24534978 -3.01721566 0 0 0 Z " fill="#121925" transform="translate(238,448)"/>
<path d="M0 0 C2.64 0 5.28 0 8 0 C8 0.99 8 1.98 8 3 C5.36 3 2.72 3 0 3 C0 2.01 0 1.02 0 0 Z " fill="#232E3C" transform="translate(632,440)"/>
<path d="M0 0 C0.99 0.33 1.98 0.66 3 1 C3 1.66 3 2.32 3 3 C3.928125 3.37125 3.928125 3.37125 4.875 3.75 C7.35068687 5.20628639 7.95125002 6.37812506 9 9 C8.01 9.33 7.02 9.66 6 10 C5.7525 9.21625 5.505 8.4325 5.25 7.625 C3.84610901 4.67682892 2.99324263 4.0975223 0 3 C0 2.01 0 1.02 0 0 Z " fill="#30425E" transform="translate(350,413)"/>
<path d="M0 0 C1.32 0 2.64 0 4 0 C3.67 1.98 3.34 3.96 3 6 C2.01 6 1.02 6 0 6 C-1.24546405 3.50907189 -0.7767578 2.58919267 0 0 Z " fill="#0C254C" transform="translate(191,388)"/>
<path d="M0 0 C2.97 0.495 2.97 0.495 6 1 C6 1.66 6 2.32 6 3 C7.2065625 3.433125 7.2065625 3.433125 8.4375 3.875 C11 5 11 5 12 7 C8.51329166 5.8905928 5.22515763 4.73662334 2 3 C2 2.34 2 1.68 2 1 C1.34 0.67 0.68 0.34 0 0 Z " fill="#3A4863" transform="translate(330,338)"/>
<path d="M0 0 C2.375 0.3125 2.375 0.3125 5 1 C5.66 1.99 6.32 2.98 7 4 C2.38 4 -2.24 4 -7 4 C-7 3.67 -7 3.34 -7 3 C-4.36 3 -1.72 3 1 3 C0.67 2.01 0.34 1.02 0 0 Z " fill="#162032" transform="translate(403,472)"/>
<path d="M0 0 C2.64 0 5.28 0 8 0 C8 0.99 8 1.98 8 3 C5.69 3.33 3.38 3.66 1 4 C0.67 2.68 0.34 1.36 0 0 Z " fill="#050B13" transform="translate(632,444)"/>
<path d="M0 0 C2.97 0.495 2.97 0.495 6 1 C5.67 3.64 5.34 6.28 5 9 C3.79371992 6.66785852 2.8345262 4.50357861 2 2 C1.34 2 0.68 2 0 2 C0 1.34 0 0.68 0 0 Z " fill="#25354F" transform="translate(174,405)"/>
<path d="M0 0 C-1.88474003 1.88474003 -5.02746402 1.69332 -7.5625 2.0625 C-8.76003906 2.23910156 -9.95757812 2.41570312 -11.19140625 2.59765625 C-12.58166016 2.79681641 -12.58166016 2.79681641 -14 3 C-13.34 2.01 -12.68 1.02 -12 0 C-4.08510638 -1.53191489 -4.08510638 -1.53191489 0 0 Z " fill="#2F3B50" transform="translate(485,403)"/>
<path d="M0 0 C3.3 0.33 6.6 0.66 10 1 C9.67 1.66 9.34 2.32 9 3 C6.03 3 3.06 3 0 3 C0 2.01 0 1.02 0 0 Z " fill="#0E1119" transform="translate(5,558)"/>
<path d="M0 0 C2.4294516 3.6441774 2.16179575 5.71241272 2 10 C1.01 10.495 1.01 10.495 0 11 C-0.84098656 6.98195309 -1.05404945 3.98196457 0 0 Z " fill="#0F1A28" transform="translate(216,499)"/>
<path d="M0 0 C0.66 0 1.32 0 2 0 C2.33 1.65 2.66 3.3 3 5 C1.02 6.32 -0.96 7.64 -3 9 C-3 6 -3 6 -2 3 C-1.34 3 -0.68 3 0 3 C0 2.01 0 1.02 0 0 Z " fill="#08132B" transform="translate(188,486)"/>
<path d="M0 0 C2.83022097 3.99560608 1.76210446 7.42737323 1 12 C0.67 12 0.34 12 0 12 C-0.19401633 10.18818595 -0.38004375 8.37551468 -0.5625 6.5625 C-0.66691406 5.55316406 -0.77132812 4.54382813 -0.87890625 3.50390625 C-0.91886719 2.67761719 -0.95882812 1.85132813 -1 1 C-0.67 0.67 -0.34 0.34 0 0 Z " fill="#040910" transform="translate(218,495)"/>
<path d="M0 0 C0 0.33 0 0.66 0 1 C-4.50353262 2.75747614 -8.17639811 3.19294408 -13 3 C-9.21656826 -0.94792877 -5.07874402 -0.29300446 0 0 Z " fill="#131923" transform="translate(26,496)"/>
<path d="M0 0 C1.32 0.33 2.64 0.66 4 1 C3.13375 1.309375 3.13375 1.309375 2.25 1.625 C-0.81410544 3.49750888 -2.15539968 5.96958519 -4 9 C-4.33 8.01 -4.66 7.02 -5 6 C-3.59554165 3.7363436 -1.8032087 1.9791315 0 0 Z " fill="#0C152E" transform="translate(199,472)"/>
<path d="M0 0 C2.125 0.9375 2.125 0.9375 4 2 C2.1875 3.5625 2.1875 3.5625 0 5 C-0.99 4.67 -1.98 4.34 -3 4 C-2.67 3.01 -2.34 2.02 -2 1 C-1.34 0.67 -0.68 0.34 0 0 Z " fill="#2A374C" transform="translate(458,409)"/>
<path d="M0 0 C0.99 0 1.98 0 3 0 C2.34 3.3 1.68 6.6 1 10 C0.67 10 0.34 10 0 10 C0 6.7 0 3.4 0 0 Z " fill="#080C12" transform="translate(290,356)"/>
<path d="M0 0 C3.3 0.33 6.6 0.66 10 1 C8 3 8 3 5 3.3125 C4.01 3.209375 3.02 3.10625 2 3 C1.34 2.01 0.68 1.02 0 0 Z " fill="#1C2630" transform="translate(69,462)"/>
<path d="M0 0 C0.79921875 0.01804687 1.5984375 0.03609375 2.421875 0.0546875 C3.02515625 0.07789063 3.6284375 0.10109375 4.25 0.125 C-0.82006276 2.66003138 -2.96472229 3.08921295 -8.75 2.125 C-5.68753253 0.34090198 -3.52920727 -0.10380021 0 0 Z " fill="#101825" transform="translate(101.75,445.875)"/>
<path d="M0 0 C0.99 0 1.98 0 3 0 C2.67 2.31 2.34 4.62 2 7 C1.34 7 0.68 7 0 7 C0 4.69 0 2.38 0 0 Z " fill="#0A1E3D" transform="translate(189,400)"/>
<path d="M0 0 C0.99 0.495 0.99 0.495 2 1 C2.59355614 3.64860427 2.74209269 6.29197322 3 9 C2.34 9 1.68 9 1 9 C0.67 6.03 0.34 3.06 0 0 Z " fill="#3D5478" transform="translate(201,398)"/>
<path d="M0 0 C0.33 0 0.66 0 1 0 C1 1.65 1 3.3 1 5 C0.34 5 -0.32 5 -1 5 C-1 5.66 -1 6.32 -1 7 C-1.99 6.67 -2.98 6.34 -4 6 C-1.125 1.125 -1.125 1.125 0 0 Z " fill="#2B3C5A" transform="translate(506,314)"/>
<path d="M0 0 C0 0.66 0 1.32 0 2 C-2.64 2.33 -5.28 2.66 -8 3 C-8 2.34 -8 1.68 -8 1 C-5.07175348 0.02391783 -3.04386724 -0.08226668 0 0 Z " fill="#13161D" transform="translate(8,527)"/>
<path d="M0 0 C2.97 0 5.94 0 9 0 C5 2 5 2 1 4 C0.67 2.68 0.34 1.36 0 0 Z " fill="#0D1520" transform="translate(23,501)"/>
<path d="M0 0 C1.125 3.75 1.125 3.75 0 6 C-0.99 6 -1.98 6 -3 6 C-2.625 3.5625 -2.625 3.5625 -2 1 C-1.34 0.67 -0.68 0.34 0 0 Z " fill="#1C2631" transform="translate(442,452)"/>
<path d="M0 0 C0.33 0.66 0.66 1.32 1 2 C0.67 2.66 0.34 3.32 0 4 C-0.22622081 5.70363822 -0.40888473 7.41328701 -0.5625 9.125 C-0.68818359 10.49011719 -0.68818359 10.49011719 -0.81640625 11.8828125 C-0.87699219 12.58148438 -0.93757813 13.28015625 -1 14 C-1.33 14 -1.66 14 -2 14 C-2.24915939 12.23186888 -2.47366632 10.46025018 -2.6875 8.6875 C-2.81511719 7.70136719 -2.94273437 6.71523438 -3.07421875 5.69921875 C-3 3 -3 3 -1.51953125 1.14453125 C-1.01808594 0.76683594 -0.51664062 0.38914062 0 0 Z " fill="#323D50" transform="translate(262,411)"/>
<path d="M0 0 C1.65 0 3.3 0 5 0 C5.33 0.99 5.66 1.98 6 3 C3.69 3 1.38 3 -1 3 C-0.67 2.01 -0.34 1.02 0 0 Z " fill="#181A25" transform="translate(39,548)"/>
<path d="M0 0 C2.1875 0.3125 2.1875 0.3125 4 1 C4 1.99 4 2.98 4 4 C1.69 3.67 -0.62 3.34 -3 3 C-1.75 1.4375 -1.75 1.4375 0 0 Z " fill="#10151A" transform="translate(60,484)"/>
<path d="M0 0 C1.32 0 2.64 0 4 0 C3.67 1.32 3.34 2.64 3 4 C1.68 4 0.36 4 -1 4 C-0.67 2.68 -0.34 1.36 0 0 Z " fill="#011134" transform="translate(147,383)"/>
<path d="M0 0 C0.99 0.33 1.98 0.66 3 1 C3 1.99 3 2.98 3 4 C2.01 4 1.02 4 0 4 C-0.66 4.99 -1.32 5.98 -2 7 C-1.125 2.25 -1.125 2.25 0 0 Z " fill="#121C27" transform="translate(497,329)"/>
</svg>
